<svg width="40" height="40" viewBox="0 0 40 40" fill="none" xmlns="http://www.w3.org/2000/svg">
<path d="M5 8.75C5 6.67893 6.67893 5 8.75 5H31.25C33.3211 5 35 6.67893 35 8.75V26.882C35 28.9531 33.3211 30.632 31.25 30.632H21.5999C21.2437 30.632 20.9174 30.8312 20.7442 31.1424C20.071 32.3527 19.4288 33.2653 18.7095 33.9746C17.2042 35.4588 15.3766 33.4348 15.5478 31.3277C15.5744 31 15.3158 30.632 14.9869 30.632H8.75C6.67893 30.632 5 28.9531 5 26.882V8.75Z" fill="white" stroke="#00266F" stroke-width="1.5" stroke-linejoin="round"/>
<path d="M12.5 12.5L20 12.5" stroke="#02CF6D" stroke-width="1.5" stroke-linecap="round"/>
<path d="M12.5 17.5L27.5 17.5" stroke="#02CF6D" stroke-width="1.5" stroke-linecap="round"/>
<path d="M12.5 22.5L27.5 22.5" stroke="#00266F" stroke-width="1.5" stroke-linecap="round" stroke-linejoin="round"/>
</svg>
