<svg width="56" height="56" viewBox="0 0 56 56" fill="none" xmlns="http://www.w3.org/2000/svg">
<path d="M32.5525 7.27344H41.0788V15.8178" stroke="#02CF6D" stroke-width="2" stroke-linecap="round" stroke-linejoin="round"/>
<path d="M16.3154 32.375L41.0789 7.27344" stroke="#02CF6D" stroke-width="2" stroke-linecap="round" stroke-linejoin="round"/>
<path d="M13.7373 40.6602H7.35C7.1567 40.6602 7 40.8169 7 41.0102V50.0572C7 50.2505 7.1567 50.4072 7.35 50.4072H13.7373C13.9306 50.4072 14.0873 50.2505 14.0873 50.0572V41.0102C14.0873 40.8169 13.9306 40.6602 13.7373 40.6602Z" stroke="#1E1E1E" stroke-width="2" stroke-linejoin="round"/>
<path d="M24.5298 39.5784H18.9879C18.7946 39.5784 18.6379 39.7351 18.6379 39.9284V50.0572C18.6379 50.2505 18.7946 50.4072 18.9879 50.4072H24.5298C24.7231 50.4072 24.8798 50.2505 24.8798 50.0572V39.9284C24.8798 39.7351 24.7231 39.5784 24.5298 39.5784Z" stroke="#1E1E1E" stroke-width="2" stroke-linejoin="round"/>
<path d="M35.3242 27.3779H29.7824C29.5891 27.3779 29.4324 27.5346 29.4324 27.7279V50.0579C29.4324 50.2512 29.5891 50.4079 29.7824 50.4079H35.3242C35.5175 50.4079 35.6742 50.2512 35.6742 50.0579V27.7279C35.6742 27.5346 35.5175 27.3779 35.3242 27.3779Z" stroke="#1E1E1E" stroke-width="2" stroke-linejoin="round"/>
<path d="M47.0159 21.646H41.474C41.2807 21.646 41.124 21.8027 41.124 21.996V50.0589C41.124 50.2522 41.2807 50.4089 41.474 50.4089H47.0159C47.2092 50.4089 47.3659 50.2522 47.3659 50.0589V21.996C47.3659 21.8027 47.2092 21.646 47.0159 21.646Z" stroke="#1E1E1E" stroke-width="2" stroke-linejoin="round"/>
</svg>
