<svg width="65" height="64" viewBox="0 0 65 64" fill="none" xmlns="http://www.w3.org/2000/svg">
<path d="M26.5075 8.42407C24.4455 9.40337 22.5526 10.7037 20.8996 12.278C19.0267 14.0978 17.4773 16.2238 16.3177 18.5637C16.0089 19.1613 15.6603 19.8979 15.501 20.2465" stroke="#00266F" stroke-width="2" stroke-linejoin="round"/>
<path d="M39.5186 44.2212C36.7021 50.2107 32.1757 55.2329 26.51 58.6544C21.0762 55.5685 16.6569 50.9692 13.7902 45.4167C7.00704 32.0295 12.6747 18.7321 13.5412 16.7798" stroke="#00266F" stroke-width="2" stroke-linejoin="round"/>
<path d="M26.5077 58.6542V4C31.1457 6.29357 34.9213 10.0203 37.2751 14.6279" stroke="#00266F" stroke-width="2" stroke-linejoin="round"/>
<path d="M13.0712 18.1453L26.6774 29.9486" stroke="#00266F" stroke-width="2" stroke-linejoin="round"/>
<path d="M10.5625 33.4731L26.4995 48.0755" stroke="#00266F" stroke-width="2" stroke-linejoin="round"/>
<path d="M51.0495 8.21143L32.4423 26.8186H42.8397L37.0033 39.7024L56.4985 20.5786H45.7297L51.0495 8.21143Z" stroke="#14CE7B" stroke-width="2" stroke-linejoin="round"/>
</svg>
