<svg width="56" height="56" viewBox="0 0 56 56" fill="none" xmlns="http://www.w3.org/2000/svg">
<g clip-path="url(#clip0_212_68)">
<path d="M27.1257 6.125C17.5746 6.18085 8.87805 12.6529 6.02946 21.7106C4.62753 26.2403 4.72355 31.1016 6.30326 35.5725C7.88297 40.0433 10.8622 43.8854 14.7986 46.5288" stroke="#1E1E1E" stroke-width="2" stroke-linejoin="round"/>
<path d="M22.6357 1.42529L27.649 6.07799C27.8042 6.22194 27.797 6.46955 27.6339 6.60434L22.6357 10.7344" stroke="#1E1E1E" stroke-width="2" stroke-linejoin="round"/>
<path d="M27.3661 49.9815C36.9265 49.9257 46.4405 43.6793 49.2797 34.6215C50.6848 30.0915 50.5913 25.2287 49.0132 20.756C47.4351 16.2834 44.4566 12.4395 40.5199 9.79419" stroke="#1E1E1E" stroke-width="2" stroke-linejoin="round"/>
<path d="M31.5664 54.8091L26.5443 50.1476C26.389 50.0035 26.3964 49.7555 26.5599 49.6209L31.5664 45.5" stroke="#1E1E1E" stroke-width="2" stroke-linejoin="round"/>
<path d="M32.0041 10.5L14.001 32.3604H26.7103L22.0218 45.5L40.251 23.625H27.5343L32.0041 10.5Z" stroke="#02CF6D" stroke-width="2" stroke-linecap="round" stroke-linejoin="round"/>
</g>
<defs>
<clipPath id="clip0_212_68">
<rect width="56" height="56" fill="white"/>
</clipPath>
</defs>
</svg>
