<svg width="48" height="48" viewBox="0 0 48 48" fill="none" xmlns="http://www.w3.org/2000/svg">
<path d="M34.8012 19.2003V7.20029C34.8012 5.87481 33.7267 4.80029 32.4012 4.80029H9.60117C8.27569 4.80029 7.20117 5.87481 7.20117 7.20029V39.4664C7.20117 41.2136 9.00847 42.3752 10.5979 41.6496L13.9776 40.1067C14.6747 39.7885 15.4819 39.8222 16.15 40.1976L20.214 42.4811C20.9996 42.9225 21.9664 42.8866 22.7172 42.3881L25.8044 40.3381C26.4953 39.8793 27.3742 39.8097 28.1287 40.1542L31.4045 41.6496C32.9939 42.3752 34.8012 41.2136 34.8012 39.4664V36.0003" stroke="#00266F" stroke-width="1.5" stroke-linejoin="round"/>
<circle cx="34.8004" cy="27.6002" r="8.4" stroke="#00266F" stroke-width="1.5" stroke-linejoin="round"/>
<path d="M12.002 12.0005H21.002" stroke="#02CF6D" stroke-width="1.5" stroke-linecap="round" stroke-linejoin="round"/>
<path d="M12.002 16.8003H24.002" stroke="#00266F" stroke-width="1.5" stroke-linecap="round" stroke-linejoin="round"/>
<path d="M34.7718 32.1459V24.0005H35.296V32.1459H34.7718ZM36.1621 26.6891C36.1365 26.4325 36.0268 26.2331 35.8329 26.0909C35.639 25.9488 35.3759 25.8778 35.0435 25.8778C34.8176 25.8778 34.627 25.9096 34.4714 25.9732C34.3159 26.0347 34.1966 26.1206 34.1135 26.2309C34.0325 26.3412 33.992 26.4664 33.992 26.6064C33.9877 26.7231 34.0123 26.8249 34.0655 26.9119C34.1209 26.9988 34.1966 27.0741 34.2924 27.1378C34.3883 27.1993 34.4991 27.2534 34.6248 27.3C34.7505 27.3446 34.8848 27.3828 35.0275 27.4146L35.6156 27.5546C35.9011 27.6182 36.1632 27.7031 36.4018 27.8091C36.6404 27.9152 36.8471 28.0456 37.0218 28.2005C37.1966 28.3553 37.3319 28.5378 37.4277 28.7478C37.5257 28.9578 37.5758 29.1985 37.5779 29.47C37.5758 29.8688 37.4735 30.2146 37.2711 30.5073C37.0708 30.7979 36.7811 31.0238 36.4018 31.185C36.0247 31.3441 35.5698 31.4237 35.0371 31.4237C34.5087 31.4237 34.0485 31.3431 33.6564 31.1819C33.2665 31.0206 32.9618 30.782 32.7424 30.4659C32.525 30.1478 32.411 29.7543 32.4004 29.2855H33.7395C33.7544 29.504 33.8173 29.6864 33.9281 29.8328C34.041 29.977 34.1912 30.0862 34.3787 30.1605C34.5684 30.2326 34.7825 30.2687 35.0211 30.2687C35.2555 30.2687 35.459 30.2347 35.6316 30.1669C35.8063 30.099 35.9416 30.0046 36.0375 29.8837C36.1333 29.7628 36.1813 29.6238 36.1813 29.4669C36.1813 29.3205 36.1376 29.1975 36.0502 29.0978C35.965 28.9981 35.8393 28.9132 35.6731 28.8432C35.5091 28.7732 35.3077 28.7096 35.0691 28.6523L34.3564 28.4741C33.8045 28.3405 33.3688 28.1315 33.0492 27.8473C32.7296 27.5631 32.5708 27.1802 32.573 26.6987C32.5708 26.3041 32.6763 25.9594 32.8894 25.6646C33.1046 25.3697 33.3997 25.1396 33.7747 24.9741C34.1497 24.8087 34.5758 24.7259 35.0531 24.7259C35.5389 24.7259 35.9629 24.8087 36.3251 24.9741C36.6895 25.1396 36.9728 25.3697 37.1752 25.6646C37.3777 25.9594 37.4821 26.3009 37.4885 26.6891H36.1621Z" fill="#00266F"/>
<path d="M16.8008 25.2002H20.4008V28.8002" stroke="#02CF6D" stroke-width="1.5" stroke-linecap="round" stroke-linejoin="round"/>
<path d="M13.2012 32.5809L20.4012 25.2002" stroke="#02CF6D" stroke-width="1.5" stroke-linecap="round" stroke-linejoin="round"/>
</svg>
