<svg width="142" height="43" viewBox="0 0 142 43" fill="none" xmlns="http://www.w3.org/2000/svg">
<path opacity="0.4" d="M60.2564 36.3496H0V40.8402H60.2564V36.3496Z" fill="white"/>
<path opacity="0.4" d="M60.2525 28.1807H33.7891V32.6713H60.2525V28.1807Z" fill="white"/>
<path opacity="0.4" d="M60.2525 19.9922H33.7891V24.4828H60.2525V19.9922Z" fill="white"/>
<path d="M29.8237 32.7945H0.0195312V29.9497V18.9365L14.5774 3.75781L29.8237 19.0584V32.7945Z" fill="white"/>
<path d="M17.5528 12.3735L8.68447 21.375C8.64398 21.4157 8.64398 21.4969 8.70472 21.5376L8.72497 21.5579L12.572 22.4926C12.6327 22.5129 12.6732 22.5739 12.653 22.6348L9.53486 29.8889C9.51462 29.9499 9.55511 30.0108 9.61585 30.0312C9.65635 30.0515 9.69684 30.0312 9.71709 30.0108L18.221 20.5216C18.2615 20.481 18.2615 20.42 18.221 20.3794C18.2008 20.359 18.2008 20.359 18.1805 20.359L15.1434 19.404C15.0827 19.3837 15.0624 19.3228 15.0827 19.2618L17.7553 12.4751C17.7553 12.4141 17.6946 12.3531 17.6338 12.3531C17.5933 12.3328 17.5731 12.3531 17.5528 12.3735Z" fill="#00266F" stroke="white" stroke-width="0.204167" stroke-miterlimit="10"/>
<path opacity="0.4" d="M47.5791 3.63574H41.8086L54.4025 16.2745H59.7681L47.5791 3.63574Z" fill="white"/>
<path opacity="0.4" d="M36.6455 3.63574H30.875L43.4689 16.2745H48.8345L36.6455 3.63574Z" fill="white"/>
<path opacity="0.4" d="M25.9775 3.63574H20.207L32.8009 16.2745H38.1665L25.9775 3.63574Z" fill="white"/>
<path d="M70.3369 21.6177C69.365 21.191 68.6158 20.5814 68.0489 19.8093C67.5022 19.0371 67.2188 18.1228 67.2188 17.0865H70.3774C70.4381 17.8586 70.7621 18.5088 71.2885 19.0168C71.8352 19.5248 72.6046 19.7686 73.5764 19.7686C74.5888 19.7686 75.3987 19.5248 75.9656 19.0168C76.5326 18.5292 76.816 17.8789 76.816 17.1068C76.816 16.4972 76.6338 16.0095 76.2896 15.6235C75.9251 15.2374 75.4999 14.9529 74.9735 14.7294C74.4471 14.5262 73.7182 14.3027 72.7868 14.0589C71.6124 13.7541 70.6608 13.4289 69.9117 13.1038C69.1827 12.7787 68.5551 12.291 68.0286 11.6002C67.5022 10.9093 67.2592 10.0153 67.2592 8.89768C67.2592 7.86139 67.5225 6.94701 68.0286 6.17486C68.5348 5.40272 69.2637 4.79313 70.2154 4.38674C71.1467 3.98035 72.2199 3.75684 73.455 3.75684C75.1962 3.75684 76.6338 4.20387 77.7474 5.07761C78.861 5.95135 79.4887 7.1502 79.6102 8.67417H76.3503C76.2896 8.02394 75.9859 7.455 75.419 6.98765C74.852 6.5203 74.1029 6.27646 73.1715 6.27646C72.3211 6.27646 71.6327 6.49998 71.1063 6.92669C70.5798 7.3534 70.2964 7.9833 70.2964 8.79609C70.2964 9.34471 70.4583 9.81206 70.8025 10.1575C71.1468 10.5232 71.5719 10.7874 72.0781 11.0109C72.6046 11.2141 73.3132 11.4376 74.2041 11.6815C75.3987 12.0066 76.3706 12.3317 77.1197 12.6771C77.8689 13.0022 78.5168 13.5102 79.0432 14.2011C79.5697 14.892 79.8329 15.8063 79.8329 16.9442C79.8329 17.8586 79.5899 18.7323 79.0837 19.5451C78.5978 20.3579 77.8689 21.0081 76.9375 21.5161C75.9859 22.0038 74.8925 22.268 73.5967 22.268C72.4021 22.268 71.3087 22.0444 70.3369 21.6177Z" fill="white"/>
<path d="M94.976 4.00098V6.419H90.1774V22.0854H87.2212V6.419H82.4023V4.00098H94.976Z" fill="white"/>
<path d="M108.828 18.387H101.276L99.9799 22.0852H96.9023L103.361 3.98047H106.783L113.242 22.0852H110.124L108.828 18.387ZM107.998 15.969L105.062 7.55671L102.106 15.969H107.998Z" fill="white"/>
<path d="M127.679 4.00098V6.419H122.88V22.0854H119.924V6.419H115.105V4.00098H127.679Z" fill="white"/>
<path d="M133.608 6.37701V11.6804H139.824V14.0984H133.608V19.6457H140.614V22.0637H130.652V3.95898H140.614V6.37701H133.608Z" fill="white"/>
<g opacity="0.4">
<path d="M70.9856 30.8223V33.3216H74.9946V35.6381H70.9856V38.3406H75.521V40.7586H67.9688V28.4043H75.521V30.8223H70.9856Z" fill="white"/>
<path d="M89.5341 40.7791H86.5375L81.5162 33.1593V40.7791H78.5195V28.4248H81.5162L86.5375 36.0853V28.4248H89.5341V40.7791Z" fill="white"/>
<path d="M95.7473 30.8223V33.3216H99.7563V35.6381H95.7473V38.3406H100.283V40.7586H92.7305V28.4043H100.283V30.8223H95.7473Z" fill="white"/>
<path d="M109.559 40.7791L106.987 36.1056H106.258V40.7791H103.262V28.4248H108.303C109.275 28.4248 110.105 28.5874 110.794 28.9328C111.482 29.2782 111.988 29.7456 112.333 30.3348C112.677 30.9241 112.839 31.5947 112.839 32.3262C112.839 33.1389 112.616 33.8908 112.15 34.5207C111.685 35.1709 111.016 35.6179 110.105 35.9024L112.94 40.7994H109.559V40.7791ZM106.279 33.972H108.141C108.688 33.972 109.113 33.8298 109.376 33.5657C109.66 33.3015 109.781 32.9154 109.781 32.4278C109.781 31.9604 109.64 31.5947 109.376 31.3102C109.093 31.046 108.688 30.9038 108.141 30.9038H106.279V33.972Z" fill="white"/>
<path d="M123.932 32.3256C123.71 31.9192 123.386 31.5941 122.981 31.3909C122.555 31.1674 122.069 31.0658 121.523 31.0658C120.551 31.0658 119.782 31.3909 119.194 32.0208C118.607 32.6507 118.324 33.5245 118.324 34.5811C118.324 35.719 118.627 36.6131 119.235 37.243C119.842 37.8729 120.693 38.198 121.766 38.198C122.495 38.198 123.122 38.0151 123.629 37.629C124.135 37.2633 124.499 36.7147 124.742 36.0035H120.936V33.7886H127.455V36.5927C127.233 37.3446 126.848 38.0354 126.321 38.6856C125.795 39.3359 125.107 39.8642 124.297 40.2503C123.487 40.6566 122.555 40.8395 121.523 40.8395C120.308 40.8395 119.215 40.5754 118.263 40.0471C117.311 39.5188 116.562 38.7669 116.036 37.8119C115.509 36.8569 115.246 35.78 115.246 34.5608C115.246 33.3416 115.509 32.2444 116.036 31.2893C116.562 30.3343 117.311 29.5825 118.263 29.0542C119.215 28.5259 120.288 28.2617 121.503 28.2617C122.981 28.2617 124.216 28.6275 125.228 29.3387C126.24 30.0498 126.909 31.0455 127.233 32.3053H123.932V32.3256Z" fill="white"/>
<path d="M140.716 28.4043L136.464 36.6947V40.7789H133.468V36.6947L129.195 28.4246H132.597L134.986 33.6061L137.355 28.4246H140.716V28.4043Z" fill="white"/>
</g>
</svg>
