<svg width="648" height="530" viewBox="0 0 648 530" fill="none" xmlns="http://www.w3.org/2000/svg">
<path d="M105 132H646" stroke="#60B33E" stroke-width="4" stroke-linecap="round"/>
<path opacity="0.3" d="M647 109C523.862 241.492 235.026 311.538 106 328V437H647V109Z" fill="url(#paint0_linear_247_850)"/>
<rect x="485" y="44" width="20" height="20" rx="4" fill="#60B33E"/>
<path d="M526.48 49.34C526.2 48.8867 525.827 48.56 525.36 48.36C524.893 48.1467 524.407 48.04 523.9 48.04C523.527 48.04 523.16 48.0867 522.8 48.18C522.44 48.2733 522.113 48.4133 521.82 48.6C521.54 48.7867 521.313 49.0333 521.14 49.34C520.967 49.6467 520.88 50.0067 520.88 50.42C520.88 50.74 520.927 51.0267 521.02 51.28C521.127 51.52 521.293 51.74 521.52 51.94C521.747 52.14 522.053 52.3267 522.44 52.5C522.827 52.6733 523.3 52.8467 523.86 53.02C524.407 53.1933 524.933 53.38 525.44 53.58C525.96 53.78 526.413 54.0333 526.8 54.34C527.2 54.6467 527.513 55.0333 527.74 55.5C527.98 55.9533 528.1 56.5267 528.1 57.22C528.1 57.9267 527.96 58.54 527.68 59.06C527.4 59.58 527.027 60.0133 526.56 60.36C526.107 60.6933 525.58 60.94 524.98 61.1C524.38 61.2733 523.76 61.36 523.12 61.36C522.707 61.36 522.293 61.32 521.88 61.24C521.467 61.1733 521.067 61.0667 520.68 60.92C520.307 60.76 519.953 60.56 519.62 60.32C519.287 60.0667 519 59.76 518.76 59.4L520.2 58.22C520.507 58.74 520.933 59.1333 521.48 59.4C522.027 59.6667 522.607 59.8 523.22 59.8C523.58 59.8 523.94 59.7467 524.3 59.64C524.673 59.5333 525.007 59.38 525.3 59.18C525.593 58.9667 525.833 58.7067 526.02 58.4C526.207 58.0933 526.3 57.74 526.3 57.34C526.3 56.9 526.227 56.5467 526.08 56.28C525.933 56 525.707 55.76 525.4 55.56C525.093 55.36 524.707 55.18 524.24 55.02C523.773 54.86 523.227 54.6733 522.6 54.46C522.093 54.3 521.627 54.12 521.2 53.92C520.773 53.7067 520.4 53.4533 520.08 53.16C519.773 52.8533 519.527 52.4933 519.34 52.08C519.167 51.6533 519.08 51.1467 519.08 50.56C519.08 49.88 519.213 49.2867 519.48 48.78C519.747 48.2733 520.107 47.8533 520.56 47.52C521.013 47.1733 521.527 46.9133 522.1 46.74C522.673 46.5667 523.273 46.48 523.9 46.48C524.7 46.48 525.427 46.6067 526.08 46.86C526.747 47.1 527.34 47.5267 527.86 48.14L526.48 49.34ZM530.053 56.32C530.053 55.5867 530.18 54.92 530.433 54.32C530.687 53.72 531.033 53.2067 531.473 52.78C531.913 52.34 532.44 52 533.053 51.76C533.667 51.52 534.333 51.4 535.053 51.4C535.773 51.4 536.44 51.52 537.053 51.76C537.667 52 538.193 52.34 538.633 52.78C539.073 53.2067 539.42 53.72 539.673 54.32C539.927 54.92 540.053 55.5867 540.053 56.32C540.053 57.0533 539.927 57.72 539.673 58.32C539.42 58.92 539.073 59.44 538.633 59.88C538.193 60.3067 537.667 60.64 537.053 60.88C536.44 61.12 535.773 61.24 535.053 61.24C534.333 61.24 533.667 61.12 533.053 60.88C532.44 60.64 531.913 60.3067 531.473 59.88C531.033 59.44 530.687 58.92 530.433 58.32C530.18 57.72 530.053 57.0533 530.053 56.32ZM531.733 56.32C531.733 56.8133 531.807 57.2733 531.953 57.7C532.113 58.1133 532.34 58.48 532.633 58.8C532.927 59.1067 533.273 59.3533 533.673 59.54C534.087 59.7133 534.547 59.8 535.053 59.8C535.56 59.8 536.013 59.7133 536.413 59.54C536.827 59.3533 537.18 59.1067 537.473 58.8C537.767 58.48 537.987 58.1133 538.133 57.7C538.293 57.2733 538.373 56.8133 538.373 56.32C538.373 55.8267 538.293 55.3733 538.133 54.96C537.987 54.5333 537.767 54.1667 537.473 53.86C537.18 53.54 536.827 53.2933 536.413 53.12C536.013 52.9333 535.56 52.84 535.053 52.84C534.547 52.84 534.087 52.9333 533.673 53.12C533.273 53.2933 532.927 53.54 532.633 53.86C532.34 54.1667 532.113 54.5333 531.953 54.96C531.807 55.3733 531.733 55.8267 531.733 56.32ZM542.608 45.88H544.168V61H542.608V45.88ZM547.153 52.84C547.633 52.3467 548.2 51.9867 548.853 51.76C549.52 51.52 550.193 51.4 550.873 51.4C552.26 51.4 553.26 51.7267 553.873 52.38C554.486 53.0333 554.793 54.0267 554.793 55.36V59.38C554.793 59.6467 554.806 59.9267 554.833 60.22C554.86 60.5 554.893 60.76 554.933 61H553.433C553.38 60.7867 553.346 60.5533 553.333 60.3C553.333 60.0333 553.333 59.8 553.333 59.6H553.293C552.986 60.08 552.573 60.4733 552.053 60.78C551.546 61.0867 550.933 61.24 550.213 61.24C549.733 61.24 549.28 61.18 548.853 61.06C548.44 60.94 548.073 60.7667 547.753 60.54C547.446 60.3 547.2 60.0067 547.013 59.66C546.826 59.3133 546.733 58.9133 546.733 58.46C546.733 57.6867 546.933 57.08 547.333 56.64C547.733 56.2 548.226 55.8733 548.813 55.66C549.413 55.4467 550.053 55.3133 550.733 55.26C551.426 55.2067 552.06 55.18 552.633 55.18H553.233V54.9C553.233 54.22 553.026 53.7067 552.613 53.36C552.213 53.0133 551.646 52.84 550.913 52.84C550.406 52.84 549.906 52.9267 549.413 53.1C548.933 53.26 548.506 53.5133 548.133 53.86L547.153 52.84ZM551.673 56.5C550.673 56.5 549.88 56.64 549.293 56.92C548.706 57.2 548.413 57.66 548.413 58.3C548.413 58.8867 548.606 59.3067 548.993 59.56C549.393 59.8 549.886 59.92 550.473 59.92C550.926 59.92 551.32 59.8467 551.653 59.7C552 59.54 552.286 59.3333 552.513 59.08C552.74 58.8267 552.913 58.5333 553.033 58.2C553.153 57.8533 553.22 57.4867 553.233 57.1V56.5H551.673ZM557.644 53.86C557.644 53.4333 557.631 53.0333 557.604 52.66C557.577 52.2867 557.564 51.9467 557.564 51.64H559.044C559.044 51.8933 559.051 52.1467 559.064 52.4C559.077 52.6533 559.084 52.9133 559.084 53.18H559.124C559.231 52.9533 559.377 52.7333 559.564 52.52C559.764 52.3067 559.997 52.12 560.264 51.96C560.531 51.7867 560.831 51.6533 561.164 51.56C561.497 51.4533 561.857 51.4 562.244 51.4C562.351 51.4 562.457 51.4067 562.564 51.42C562.671 51.4333 562.777 51.46 562.884 51.5L562.784 53.08C562.517 53 562.237 52.96 561.944 52.96C560.984 52.96 560.284 53.2733 559.844 53.9C559.417 54.5133 559.204 55.36 559.204 56.44V61H557.644V53.86ZM570.522 46.84H574.722C575.375 46.84 575.995 46.9067 576.582 47.04C577.182 47.16 577.708 47.3733 578.162 47.68C578.628 47.9733 578.995 48.3733 579.262 48.88C579.542 49.3733 579.682 49.9867 579.682 50.72C579.682 51.4933 579.535 52.1333 579.242 52.64C578.948 53.1467 578.568 53.5467 578.102 53.84C577.648 54.1333 577.148 54.34 576.602 54.46C576.055 54.58 575.535 54.64 575.042 54.64H572.202V61H570.522V46.84ZM572.202 53.08H575.042C575.882 53.08 576.562 52.8933 577.082 52.52C577.615 52.1333 577.882 51.54 577.882 50.74C577.882 49.94 577.615 49.3533 577.082 48.98C576.562 48.5933 575.882 48.4 575.042 48.4H572.202V53.08ZM581.977 52.84C582.457 52.3467 583.024 51.9867 583.677 51.76C584.344 51.52 585.017 51.4 585.697 51.4C587.084 51.4 588.084 51.7267 588.697 52.38C589.311 53.0333 589.617 54.0267 589.617 55.36V59.38C589.617 59.6467 589.631 59.9267 589.657 60.22C589.684 60.5 589.717 60.76 589.757 61H588.257C588.204 60.7867 588.171 60.5533 588.157 60.3C588.157 60.0333 588.157 59.8 588.157 59.6H588.117C587.811 60.08 587.397 60.4733 586.877 60.78C586.371 61.0867 585.757 61.24 585.037 61.24C584.557 61.24 584.104 61.18 583.677 61.06C583.264 60.94 582.897 60.7667 582.577 60.54C582.271 60.3 582.024 60.0067 581.837 59.66C581.651 59.3133 581.557 58.9133 581.557 58.46C581.557 57.6867 581.757 57.08 582.157 56.64C582.557 56.2 583.051 55.8733 583.637 55.66C584.237 55.4467 584.877 55.3133 585.557 55.26C586.251 55.2067 586.884 55.18 587.457 55.18H588.057V54.9C588.057 54.22 587.851 53.7067 587.437 53.36C587.037 53.0133 586.471 52.84 585.737 52.84C585.231 52.84 584.731 52.9267 584.237 53.1C583.757 53.26 583.331 53.5133 582.957 53.86L581.977 52.84ZM586.497 56.5C585.497 56.5 584.704 56.64 584.117 56.92C583.531 57.2 583.237 57.66 583.237 58.3C583.237 58.8867 583.431 59.3067 583.817 59.56C584.217 59.8 584.711 59.92 585.297 59.92C585.751 59.92 586.144 59.8467 586.477 59.7C586.824 59.54 587.111 59.3333 587.337 59.08C587.564 58.8267 587.737 58.5333 587.857 58.2C587.977 57.8533 588.044 57.4867 588.057 57.1V56.5H586.497ZM595.908 63.14C595.748 63.54 595.582 63.9 595.408 64.22C595.248 64.5533 595.048 64.8333 594.808 65.06C594.582 65.3 594.302 65.48 593.968 65.6C593.648 65.7333 593.255 65.8 592.788 65.8C592.562 65.8 592.322 65.7867 592.068 65.76C591.828 65.7333 591.602 65.6667 591.388 65.56L591.588 64.2C591.748 64.2667 591.915 64.3067 592.088 64.32C592.262 64.3467 592.462 64.36 592.688 64.36C593.195 64.36 593.568 64.22 593.808 63.94C594.048 63.66 594.255 63.2867 594.428 62.82L595.068 61.06L591.188 51.64H593.008L595.908 58.98H595.948L598.728 51.64H600.428L595.908 63.14ZM602.117 53.86C602.117 53.4333 602.103 53.0333 602.077 52.66C602.05 52.2867 602.037 51.9467 602.037 51.64H603.517C603.517 51.8933 603.523 52.1467 603.537 52.4C603.55 52.6533 603.557 52.9133 603.557 53.18H603.597C603.703 52.9533 603.85 52.7333 604.037 52.52C604.237 52.3067 604.47 52.12 604.737 51.96C605.003 51.7867 605.303 51.6533 605.637 51.56C605.97 51.4533 606.33 51.4 606.717 51.4C607.223 51.4 607.643 51.4667 607.977 51.6C608.323 51.72 608.61 51.8733 608.837 52.06C609.063 52.2333 609.237 52.4267 609.357 52.64C609.49 52.84 609.597 53.02 609.677 53.18C610.023 52.62 610.423 52.1867 610.877 51.88C611.33 51.56 611.917 51.4 612.637 51.4C613.303 51.4 613.863 51.4933 614.317 51.68C614.77 51.8533 615.137 52.1133 615.417 52.46C615.697 52.7933 615.897 53.2067 616.017 53.7C616.137 54.18 616.197 54.72 616.197 55.32V61H614.637V55.4C614.637 55.08 614.603 54.7667 614.537 54.46C614.47 54.1533 614.35 53.88 614.177 53.64C614.003 53.4 613.77 53.2067 613.477 53.06C613.183 52.9133 612.81 52.84 612.357 52.84C612.023 52.84 611.71 52.9067 611.417 53.04C611.123 53.1733 610.863 53.36 610.637 53.6C610.423 53.84 610.25 54.1333 610.117 54.48C609.997 54.8133 609.937 55.1867 609.937 55.6V61H608.377V55.7C608.377 54.66 608.237 53.9267 607.957 53.5C607.677 53.06 607.217 52.84 606.577 52.84C606.07 52.84 605.63 52.9267 605.257 53.1C604.897 53.2733 604.597 53.52 604.357 53.84C604.13 54.16 603.957 54.54 603.837 54.98C603.73 55.42 603.677 55.9067 603.677 56.44V61H602.117V53.86ZM627.508 59.3C626.948 60.02 626.335 60.5267 625.668 60.82C625.001 61.1 624.228 61.24 623.348 61.24C622.615 61.24 621.955 61.1133 621.368 60.86C620.781 60.5933 620.281 60.24 619.868 59.8C619.468 59.36 619.155 58.84 618.928 58.24C618.715 57.64 618.608 57 618.608 56.32C618.608 55.6 618.728 54.94 618.968 54.34C619.208 53.7267 619.541 53.2067 619.968 52.78C620.395 52.34 620.901 52 621.488 51.76C622.075 51.52 622.715 51.4 623.408 51.4C624.061 51.4 624.661 51.5133 625.208 51.74C625.755 51.9533 626.221 52.2733 626.608 52.7C627.008 53.1133 627.315 53.6267 627.528 54.24C627.741 54.84 627.848 55.5267 627.848 56.3V56.8H620.288C620.315 57.2 620.408 57.5867 620.568 57.96C620.741 58.32 620.961 58.64 621.228 58.92C621.495 59.1867 621.808 59.4 622.168 59.56C622.528 59.72 622.921 59.8 623.348 59.8C624.028 59.8 624.601 59.68 625.068 59.44C625.535 59.2 625.955 58.8467 626.328 58.38L627.508 59.3ZM626.168 55.48C626.141 54.68 625.881 54.04 625.388 53.56C624.895 53.08 624.215 52.84 623.348 52.84C622.481 52.84 621.781 53.08 621.248 53.56C620.715 54.04 620.395 54.68 620.288 55.48H626.168ZM630.261 53.86C630.261 53.4333 630.248 53.0333 630.221 52.66C630.195 52.2867 630.181 51.9467 630.181 51.64L631.661 51.64C631.661 51.8933 631.668 52.1467 631.681 52.4C631.695 52.6533 631.701 52.9133 631.701 53.18H631.741C631.848 52.9533 631.995 52.7333 632.181 52.52C632.381 52.3067 632.615 52.12 632.881 51.96C633.148 51.7867 633.448 51.6533 633.781 51.56C634.115 51.4533 634.475 51.4 634.861 51.4C635.475 51.4 636.001 51.4933 636.441 51.68C636.895 51.8667 637.268 52.1267 637.561 52.46C637.855 52.7933 638.068 53.2 638.201 53.68C638.348 54.1467 638.421 54.66 638.421 55.22V61H636.861V55.38C636.861 54.5933 636.688 53.9733 636.341 53.52C635.995 53.0667 635.455 52.84 634.721 52.84C634.215 52.84 633.775 52.9267 633.401 53.1C633.041 53.2733 632.741 53.52 632.501 53.84C632.275 54.16 632.101 54.54 631.981 54.98C631.875 55.42 631.821 55.9067 631.821 56.44V61H630.261V53.86ZM646.495 52.96H643.735V57.64C643.735 57.9467 643.741 58.2333 643.755 58.5C643.768 58.7533 643.821 58.98 643.915 59.18C644.008 59.3667 644.148 59.52 644.335 59.64C644.521 59.7467 644.788 59.8 645.135 59.8C645.361 59.8 645.595 59.7733 645.835 59.72C646.075 59.6667 646.301 59.5867 646.515 59.48L646.575 60.9C646.308 61.02 646.008 61.1067 645.675 61.16C645.355 61.2133 645.048 61.24 644.755 61.24C644.195 61.24 643.748 61.1667 643.415 61.02C643.081 60.8733 642.821 60.6667 642.635 60.4C642.448 60.1333 642.321 59.8067 642.255 59.42C642.201 59.02 642.175 58.58 642.175 58.1V52.96H640.135V51.64H642.175V48.98H643.735V51.64H646.495V52.96Z" fill="#1E1E1E"/>
<rect x="485" width="20" height="20" rx="4" fill="#00266F"/>
<path d="M530.38 11.6C530.38 12.3733 530.28 13.1067 530.08 13.8C529.893 14.4933 529.587 15.1067 529.16 15.64C528.747 16.16 528.2 16.58 527.52 16.9C526.84 17.2067 526.013 17.36 525.04 17.36C524.067 17.36 523.24 17.2067 522.56 16.9C521.88 16.58 521.327 16.16 520.9 15.64C520.487 15.1067 520.18 14.4933 519.98 13.8C519.793 13.1067 519.7 12.3733 519.7 11.6V2.84H521.38V11.36C521.38 11.9333 521.44 12.4867 521.56 13.02C521.68 13.5533 521.88 14.0267 522.16 14.44C522.44 14.8533 522.813 15.1867 523.28 15.44C523.747 15.68 524.333 15.8 525.04 15.8C525.747 15.8 526.333 15.68 526.8 15.44C527.267 15.1867 527.64 14.8533 527.92 14.44C528.2 14.0267 528.4 13.5533 528.52 13.02C528.64 12.4867 528.7 11.9333 528.7 11.36V2.84H530.38V11.6ZM538.682 8.96H535.922V13.64C535.922 13.9467 535.929 14.2333 535.942 14.5C535.955 14.7533 536.009 14.98 536.102 15.18C536.195 15.3667 536.335 15.52 536.522 15.64C536.709 15.7467 536.975 15.8 537.322 15.8C537.549 15.8 537.782 15.7733 538.022 15.72C538.262 15.6667 538.489 15.5867 538.702 15.48L538.762 16.9C538.495 17.02 538.195 17.1067 537.862 17.16C537.542 17.2133 537.235 17.24 536.942 17.24C536.382 17.24 535.935 17.1667 535.602 17.02C535.269 16.8733 535.009 16.6667 534.822 16.4C534.635 16.1333 534.509 15.8067 534.442 15.42C534.389 15.02 534.362 14.58 534.362 14.1V8.96H532.322V7.64H534.362V4.98H535.922V7.64L538.682 7.64V8.96ZM540.753 7.64H542.313V17H540.753V7.64ZM540.393 3.98C540.393 3.67333 540.499 3.40667 540.713 3.18C540.939 2.95333 541.213 2.84 541.533 2.84C541.853 2.84 542.119 2.95333 542.333 3.18C542.559 3.40667 542.673 3.67333 542.673 3.98C542.673 4.31333 542.566 4.58667 542.353 4.8C542.139 5.01333 541.866 5.12 541.533 5.12C541.199 5.12 540.926 5.01333 540.713 4.8C540.499 4.58667 540.393 4.31333 540.393 3.98ZM545.558 1.88L547.118 1.88V17L545.558 17V1.88ZM550.382 7.64H551.942V17H550.382V7.64ZM550.022 3.98C550.022 3.67333 550.128 3.40667 550.342 3.18C550.568 2.95333 550.842 2.84 551.162 2.84C551.482 2.84 551.748 2.95333 551.962 3.18C552.188 3.40667 552.302 3.67333 552.302 3.98C552.302 4.31333 552.195 4.58667 551.982 4.8C551.768 5.01333 551.495 5.12 551.162 5.12C550.828 5.12 550.555 5.01333 550.342 4.8C550.128 4.58667 550.022 4.31333 550.022 3.98ZM560.166 8.96H557.406V13.64C557.406 13.9467 557.413 14.2333 557.426 14.5C557.44 14.7533 557.493 14.98 557.586 15.18C557.68 15.3667 557.82 15.52 558.006 15.64C558.193 15.7467 558.46 15.8 558.806 15.8C559.033 15.8 559.266 15.7733 559.506 15.72C559.746 15.6667 559.973 15.5867 560.186 15.48L560.246 16.9C559.98 17.02 559.68 17.1067 559.346 17.16C559.026 17.2133 558.72 17.24 558.426 17.24C557.866 17.24 557.42 17.1667 557.086 17.02C556.753 16.8733 556.493 16.6667 556.306 16.4C556.12 16.1333 555.993 15.8067 555.926 15.42C555.873 15.02 555.846 14.58 555.846 14.1V8.96L553.806 8.96V7.64L555.846 7.64V4.98H557.406V7.64L560.166 7.64V8.96ZM565.518 19.14C565.358 19.54 565.191 19.9 565.018 20.22C564.858 20.5533 564.658 20.8333 564.418 21.06C564.191 21.3 563.911 21.48 563.578 21.6C563.258 21.7333 562.864 21.8 562.398 21.8C562.171 21.8 561.931 21.7867 561.678 21.76C561.438 21.7333 561.211 21.6667 560.998 21.56L561.198 20.2C561.358 20.2667 561.524 20.3067 561.698 20.32C561.871 20.3467 562.071 20.36 562.298 20.36C562.804 20.36 563.178 20.22 563.418 19.94C563.658 19.66 563.864 19.2867 564.038 18.82L564.678 17.06L560.798 7.64H562.618L565.518 14.98H565.558L568.338 7.64H570.038L565.518 19.14ZM577.573 2.84L581.893 2.84C582.479 2.84 583.053 2.9 583.613 3.02C584.173 3.14 584.673 3.34 585.113 3.62C585.553 3.88667 585.906 4.24 586.173 4.68C586.453 5.12 586.593 5.66667 586.593 6.32C586.593 7.14667 586.366 7.83333 585.912 8.38C585.473 8.91333 584.873 9.29333 584.113 9.52V9.56C584.566 9.6 584.986 9.72 585.373 9.92C585.773 10.1067 586.113 10.3533 586.393 10.66C586.686 10.9667 586.913 11.3267 587.073 11.74C587.233 12.14 587.313 12.5733 587.313 13.04C587.313 13.8267 587.146 14.4733 586.813 14.98C586.493 15.4867 586.066 15.8933 585.533 16.2C585.013 16.4933 584.419 16.7 583.753 16.82C583.099 16.94 582.446 17 581.793 17L577.573 17V2.84ZM579.253 8.84H581.573C581.973 8.84 582.359 8.81333 582.733 8.76C583.119 8.70667 583.466 8.6 583.773 8.44C584.079 8.26667 584.326 8.03333 584.513 7.74C584.699 7.43333 584.793 7.03333 584.793 6.54C584.793 6.1 584.706 5.74667 584.533 5.48C584.359 5.2 584.126 4.98 583.833 4.82C583.553 4.66 583.226 4.55333 582.853 4.5C582.493 4.43333 582.126 4.4 581.753 4.4L579.253 4.4V8.84ZM579.253 15.44H582.093C582.506 15.44 582.913 15.4 583.313 15.32C583.726 15.2267 584.093 15.0867 584.413 14.9C584.746 14.7 585.013 14.4467 585.213 14.14C585.413 13.82 585.513 13.4333 585.513 12.98C585.513 12.4867 585.413 12.0733 585.213 11.74C585.026 11.4067 584.773 11.14 584.453 10.94C584.146 10.74 583.786 10.6 583.373 10.52C582.973 10.44 582.559 10.4 582.133 10.4H579.253V15.44ZM590.03 7.64H591.59V17H590.03V7.64ZM589.67 3.98C589.67 3.67333 589.777 3.40667 589.99 3.18C590.217 2.95333 590.49 2.84 590.81 2.84C591.13 2.84 591.397 2.95333 591.61 3.18C591.837 3.40667 591.95 3.67333 591.95 3.98C591.95 4.31333 591.843 4.58667 591.63 4.8C591.417 5.01333 591.143 5.12 590.81 5.12C590.477 5.12 590.203 5.01333 589.99 4.8C589.777 4.58667 589.67 4.31333 589.67 3.98ZM594.835 1.88L596.395 1.88V17H594.835V1.88ZM599.659 1.88L601.219 1.88V17H599.659V1.88ZM604.524 14.54C604.83 14.9267 605.164 15.2333 605.524 15.46C605.897 15.6867 606.364 15.8 606.924 15.8C607.164 15.8 607.404 15.7733 607.644 15.72C607.897 15.6667 608.124 15.58 608.324 15.46C608.524 15.34 608.684 15.1933 608.804 15.02C608.924 14.8333 608.984 14.6133 608.984 14.36C608.984 14.1067 608.924 13.9 608.804 13.74C608.697 13.58 608.55 13.4467 608.364 13.34C608.177 13.22 607.964 13.1267 607.724 13.06C607.484 12.9933 607.237 12.9333 606.984 12.88C606.544 12.7867 606.124 12.68 605.724 12.56C605.324 12.44 604.97 12.2867 604.664 12.1C604.37 11.9 604.13 11.6467 603.944 11.34C603.77 11.0333 603.684 10.64 603.684 10.16C603.684 9.70667 603.784 9.30667 603.984 8.96C604.184 8.61333 604.45 8.32667 604.784 8.1C605.117 7.87333 605.49 7.7 605.904 7.58C606.317 7.46 606.744 7.4 607.184 7.4C607.85 7.4 608.464 7.53333 609.024 7.8C609.597 8.06667 610.044 8.5 610.364 9.1L609.064 9.96C608.864 9.62667 608.597 9.36 608.264 9.16C607.944 8.94667 607.55 8.84 607.084 8.84C606.87 8.84 606.65 8.86667 606.424 8.92C606.21 8.97333 606.017 9.05333 605.844 9.16C605.67 9.26667 605.524 9.40667 605.404 9.58C605.297 9.74 605.244 9.92667 605.244 10.14C605.244 10.34 605.304 10.5133 605.424 10.66C605.557 10.7933 605.73 10.9133 605.944 11.02C606.17 11.1267 606.424 11.22 606.704 11.3C606.997 11.38 607.297 11.4467 607.604 11.5C608.017 11.58 608.41 11.6867 608.784 11.82C609.157 11.94 609.484 12.1067 609.764 12.32C610.044 12.5333 610.264 12.8 610.424 13.12C610.584 13.44 610.664 13.8333 610.664 14.3C610.664 14.8333 610.557 15.2867 610.344 15.66C610.13 16.0333 609.844 16.34 609.484 16.58C609.137 16.8067 608.737 16.9733 608.284 17.08C607.844 17.1867 607.39 17.24 606.924 17.24C606.124 17.24 605.43 17.12 604.844 16.88C604.27 16.6267 603.75 16.1667 603.284 15.5L604.524 14.54Z" fill="#1E1E1E"/>
<path d="M105 381L647 381" stroke="#EAEAEA" stroke-linecap="round" stroke-linejoin="round" stroke-dasharray="12 12"/>
<path d="M105 327L647 327" stroke="#EAEAEA" stroke-linecap="round" stroke-linejoin="round" stroke-dasharray="12 12"/>
<path d="M105 273L647 273" stroke="#EAEAEA" stroke-linecap="round" stroke-linejoin="round" stroke-dasharray="12 12"/>
<path d="M105 219L647 219" stroke="#EAEAEA" stroke-linecap="round" stroke-linejoin="round" stroke-dasharray="12 12"/>
<path d="M105 165L647 165" stroke="#EAEAEA" stroke-linecap="round" stroke-linejoin="round" stroke-dasharray="12 12"/>
<path d="M105 111L647 111" stroke="#EAEAEA" stroke-linecap="round" stroke-linejoin="round" stroke-dasharray="12 12"/>
<path d="M105 437L647 437" stroke="#DEDEDE" stroke-linecap="round" stroke-linejoin="round"/>
<path d="M68.2534 375.4H62.4734L62.4134 379.22C62.6801 379.087 62.9734 379 63.2934 378.96C63.6268 378.907 63.9401 378.88 64.2334 378.88C64.9134 378.88 65.5268 379 66.0734 379.24C66.6334 379.467 67.1134 379.793 67.5134 380.22C67.9134 380.633 68.2201 381.127 68.4334 381.7C68.6468 382.26 68.7534 382.873 68.7534 383.54C68.7534 384.247 68.6268 384.893 68.3734 385.48C68.1334 386.053 67.7934 386.547 67.3534 386.96C66.9268 387.36 66.4134 387.673 65.8134 387.9C65.2268 388.127 64.5868 388.24 63.8934 388.24C62.8134 388.24 61.9401 388.007 61.2734 387.54C60.6201 387.073 60.1001 386.447 59.7134 385.66L61.3934 385.02C61.6334 385.553 61.9801 385.987 62.4334 386.32C62.9001 386.64 63.4334 386.8 64.0334 386.8C64.4601 386.8 64.8534 386.727 65.2134 386.58C65.5868 386.42 65.9068 386.2 66.1734 385.92C66.4534 385.627 66.6734 385.28 66.8334 384.88C66.9934 384.48 67.0734 384.033 67.0734 383.54C67.0734 383.02 66.9801 382.56 66.7934 382.16C66.6201 381.76 66.3734 381.427 66.0534 381.16C65.7468 380.88 65.3801 380.673 64.9534 380.54C64.5268 380.393 64.0668 380.32 63.5734 380.32C63.0934 380.32 62.6001 380.407 62.0934 380.58C61.5868 380.74 61.1201 380.947 60.6934 381.2L60.8334 373.84H68.2534V375.4ZM70.6467 380.92C70.6467 380.12 70.7134 379.287 70.8467 378.42C70.9801 377.553 71.2267 376.767 71.5867 376.06C71.9467 375.34 72.4334 374.753 73.0467 374.3C73.6734 373.833 74.4734 373.6 75.4467 373.6C76.4201 373.6 77.2134 373.833 77.8267 374.3C78.4534 374.753 78.9467 375.34 79.3067 376.06C79.6667 376.767 79.9134 377.553 80.0467 378.42C80.1801 379.287 80.2467 380.12 80.2467 380.92C80.2467 381.72 80.1801 382.553 80.0467 383.42C79.9134 384.287 79.6667 385.08 79.3067 385.8C78.9467 386.507 78.4534 387.093 77.8267 387.56C77.2134 388.013 76.4201 388.24 75.4467 388.24C74.4734 388.24 73.6734 388.013 73.0467 387.56C72.4334 387.093 71.9467 386.507 71.5867 385.8C71.2267 385.08 70.9801 384.287 70.8467 383.42C70.7134 382.553 70.6467 381.72 70.6467 380.92ZM72.3267 380.92C72.3267 381.267 72.3401 381.653 72.3667 382.08C72.3934 382.507 72.4401 382.94 72.5067 383.38C72.5867 383.807 72.6934 384.227 72.8267 384.64C72.9734 385.053 73.1601 385.42 73.3867 385.74C73.6267 386.06 73.9134 386.32 74.2467 386.52C74.5801 386.707 74.9801 386.8 75.4467 386.8C75.9134 386.8 76.3134 386.707 76.6467 386.52C76.9801 386.32 77.2601 386.06 77.4867 385.74C77.7267 385.42 77.9134 385.053 78.0467 384.64C78.1934 384.227 78.3001 383.807 78.3667 383.38C78.4467 382.94 78.5001 382.507 78.5267 382.08C78.5534 381.653 78.5667 381.267 78.5667 380.92C78.5667 380.573 78.5534 380.187 78.5267 379.76C78.5001 379.333 78.4467 378.907 78.3667 378.48C78.3001 378.04 78.1934 377.613 78.0467 377.2C77.9134 376.787 77.7267 376.42 77.4867 376.1C77.2601 375.78 76.9801 375.527 76.6467 375.34C76.3134 375.14 75.9134 375.04 75.4467 375.04C74.9801 375.04 74.5801 375.14 74.2467 375.34C73.9134 375.527 73.6267 375.78 73.3867 376.1C73.1601 376.42 72.9734 376.787 72.8267 377.2C72.6934 377.613 72.5867 378.04 72.5067 378.48C72.4401 378.907 72.3934 379.333 72.3667 379.76C72.3401 380.187 72.3267 380.573 72.3267 380.92Z" fill="#6A6A6A"/>
<path d="M54.8602 334H53.1802V322H53.1402L50.6002 324.14L49.6002 322.92L53.4002 319.84H54.8602V334ZM59.5334 326.92C59.5334 326.12 59.6001 325.287 59.7334 324.42C59.8668 323.553 60.1134 322.767 60.4734 322.06C60.8334 321.34 61.3201 320.753 61.9334 320.3C62.5601 319.833 63.3601 319.6 64.3334 319.6C65.3068 319.6 66.1001 319.833 66.7134 320.3C67.3401 320.753 67.8334 321.34 68.1934 322.06C68.5534 322.767 68.8001 323.553 68.9334 324.42C69.0668 325.287 69.1334 326.12 69.1334 326.92C69.1334 327.72 69.0668 328.553 68.9334 329.42C68.8001 330.287 68.5534 331.08 68.1934 331.8C67.8334 332.507 67.3401 333.093 66.7134 333.56C66.1001 334.013 65.3068 334.24 64.3334 334.24C63.3601 334.24 62.5601 334.013 61.9334 333.56C61.3201 333.093 60.8334 332.507 60.4734 331.8C60.1134 331.08 59.8668 330.287 59.7334 329.42C59.6001 328.553 59.5334 327.72 59.5334 326.92ZM61.2134 326.92C61.2134 327.267 61.2268 327.653 61.2534 328.08C61.2801 328.507 61.3268 328.94 61.3934 329.38C61.4734 329.807 61.5801 330.227 61.7134 330.64C61.8601 331.053 62.0468 331.42 62.2734 331.74C62.5134 332.06 62.8001 332.32 63.1334 332.52C63.4668 332.707 63.8668 332.8 64.3334 332.8C64.8001 332.8 65.2001 332.707 65.5334 332.52C65.8668 332.32 66.1468 332.06 66.3734 331.74C66.6134 331.42 66.8001 331.053 66.9334 330.64C67.0801 330.227 67.1868 329.807 67.2534 329.38C67.3334 328.94 67.3868 328.507 67.4134 328.08C67.4401 327.653 67.4534 327.267 67.4534 326.92C67.4534 326.573 67.4401 326.187 67.4134 325.76C67.3868 325.333 67.3334 324.907 67.2534 324.48C67.1868 324.04 67.0801 323.613 66.9334 323.2C66.8001 322.787 66.6134 322.42 66.3734 322.1C66.1468 321.78 65.8668 321.527 65.5334 321.34C65.2001 321.14 64.8001 321.04 64.3334 321.04C63.8668 321.04 63.4668 321.14 63.1334 321.34C62.8001 321.527 62.5134 321.78 62.2734 322.1C62.0468 322.42 61.8601 322.787 61.7134 323.2C61.5801 323.613 61.4734 324.04 61.3934 324.48C61.3268 324.907 61.2801 325.333 61.2534 325.76C61.2268 326.187 61.2134 326.573 61.2134 326.92ZM70.6467 326.92C70.6467 326.12 70.7134 325.287 70.8467 324.42C70.9801 323.553 71.2267 322.767 71.5867 322.06C71.9467 321.34 72.4334 320.753 73.0467 320.3C73.6734 319.833 74.4734 319.6 75.4467 319.6C76.4201 319.6 77.2134 319.833 77.8267 320.3C78.4534 320.753 78.9467 321.34 79.3067 322.06C79.6667 322.767 79.9134 323.553 80.0467 324.42C80.1801 325.287 80.2467 326.12 80.2467 326.92C80.2467 327.72 80.1801 328.553 80.0467 329.42C79.9134 330.287 79.6667 331.08 79.3067 331.8C78.9467 332.507 78.4534 333.093 77.8267 333.56C77.2134 334.013 76.4201 334.24 75.4467 334.24C74.4734 334.24 73.6734 334.013 73.0467 333.56C72.4334 333.093 71.9467 332.507 71.5867 331.8C71.2267 331.08 70.9801 330.287 70.8467 329.42C70.7134 328.553 70.6467 327.72 70.6467 326.92ZM72.3267 326.92C72.3267 327.267 72.3401 327.653 72.3667 328.08C72.3934 328.507 72.4401 328.94 72.5067 329.38C72.5867 329.807 72.6934 330.227 72.8267 330.64C72.9734 331.053 73.1601 331.42 73.3867 331.74C73.6267 332.06 73.9134 332.32 74.2467 332.52C74.5801 332.707 74.9801 332.8 75.4467 332.8C75.9134 332.8 76.3134 332.707 76.6467 332.52C76.9801 332.32 77.2601 332.06 77.4867 331.74C77.7267 331.42 77.9134 331.053 78.0467 330.64C78.1934 330.227 78.3001 329.807 78.3667 329.38C78.4467 328.94 78.5001 328.507 78.5267 328.08C78.5534 327.653 78.5667 327.267 78.5667 326.92C78.5667 326.573 78.5534 326.187 78.5267 325.76C78.5001 325.333 78.4467 324.907 78.3667 324.48C78.3001 324.04 78.1934 323.613 78.0467 323.2C77.9134 322.787 77.7267 322.42 77.4867 322.1C77.2601 321.78 76.9801 321.527 76.6467 321.34C76.3134 321.14 75.9134 321.04 75.4467 321.04C74.9801 321.04 74.5801 321.14 74.2467 321.34C73.9134 321.527 73.6267 321.78 73.3867 322.1C73.1601 322.42 72.9734 322.787 72.8267 323.2C72.6934 323.613 72.5867 324.04 72.5067 324.48C72.4401 324.907 72.3934 325.333 72.3667 325.76C72.3401 326.187 72.3267 326.573 72.3267 326.92Z" fill="#6A6A6A"/>
<path d="M54.8602 280H53.1802V268H53.1402L50.6002 270.14L49.6002 268.92L53.4002 265.84H54.8602V280ZM68.2534 267.4H62.4734L62.4134 271.22C62.6801 271.087 62.9734 271 63.2934 270.96C63.6268 270.907 63.9401 270.88 64.2334 270.88C64.9134 270.88 65.5268 271 66.0734 271.24C66.6334 271.467 67.1134 271.793 67.5134 272.22C67.9134 272.633 68.2201 273.127 68.4334 273.7C68.6468 274.26 68.7534 274.873 68.7534 275.54C68.7534 276.247 68.6268 276.893 68.3734 277.48C68.1334 278.053 67.7934 278.547 67.3534 278.96C66.9268 279.36 66.4134 279.673 65.8134 279.9C65.2268 280.127 64.5868 280.24 63.8934 280.24C62.8134 280.24 61.9401 280.007 61.2734 279.54C60.6201 279.073 60.1001 278.447 59.7134 277.66L61.3934 277.02C61.6334 277.553 61.9801 277.987 62.4334 278.32C62.9001 278.64 63.4334 278.8 64.0334 278.8C64.4601 278.8 64.8534 278.727 65.2134 278.58C65.5868 278.42 65.9068 278.2 66.1734 277.92C66.4534 277.627 66.6734 277.28 66.8334 276.88C66.9934 276.48 67.0734 276.033 67.0734 275.54C67.0734 275.02 66.9801 274.56 66.7934 274.16C66.6201 273.76 66.3734 273.427 66.0534 273.16C65.7468 272.88 65.3801 272.673 64.9534 272.54C64.5268 272.393 64.0668 272.32 63.5734 272.32C63.0934 272.32 62.6001 272.407 62.0934 272.58C61.5868 272.74 61.1201 272.947 60.6934 273.2L60.8334 265.84H68.2534V267.4ZM70.6467 272.92C70.6467 272.12 70.7134 271.287 70.8467 270.42C70.9801 269.553 71.2267 268.767 71.5867 268.06C71.9467 267.34 72.4334 266.753 73.0467 266.3C73.6734 265.833 74.4734 265.6 75.4467 265.6C76.4201 265.6 77.2134 265.833 77.8267 266.3C78.4534 266.753 78.9467 267.34 79.3067 268.06C79.6667 268.767 79.9134 269.553 80.0467 270.42C80.1801 271.287 80.2467 272.12 80.2467 272.92C80.2467 273.72 80.1801 274.553 80.0467 275.42C79.9134 276.287 79.6667 277.08 79.3067 277.8C78.9467 278.507 78.4534 279.093 77.8267 279.56C77.2134 280.013 76.4201 280.24 75.4467 280.24C74.4734 280.24 73.6734 280.013 73.0467 279.56C72.4334 279.093 71.9467 278.507 71.5867 277.8C71.2267 277.08 70.9801 276.287 70.8467 275.42C70.7134 274.553 70.6467 273.72 70.6467 272.92ZM72.3267 272.92C72.3267 273.267 72.3401 273.653 72.3667 274.08C72.3934 274.507 72.4401 274.94 72.5067 275.38C72.5867 275.807 72.6934 276.227 72.8267 276.64C72.9734 277.053 73.1601 277.42 73.3867 277.74C73.6267 278.06 73.9134 278.32 74.2467 278.52C74.5801 278.707 74.9801 278.8 75.4467 278.8C75.9134 278.8 76.3134 278.707 76.6467 278.52C76.9801 278.32 77.2601 278.06 77.4867 277.74C77.7267 277.42 77.9134 277.053 78.0467 276.64C78.1934 276.227 78.3001 275.807 78.3667 275.38C78.4467 274.94 78.5001 274.507 78.5267 274.08C78.5534 273.653 78.5667 273.267 78.5667 272.92C78.5667 272.573 78.5534 272.187 78.5267 271.76C78.5001 271.333 78.4467 270.907 78.3667 270.48C78.3001 270.04 78.1934 269.613 78.0467 269.2C77.9134 268.787 77.7267 268.42 77.4867 268.1C77.2601 267.78 76.9801 267.527 76.6467 267.34C76.3134 267.14 75.9134 267.04 75.4467 267.04C74.9801 267.04 74.5801 267.14 74.2467 267.34C73.9134 267.527 73.6267 267.78 73.3867 268.1C73.1601 268.42 72.9734 268.787 72.8267 269.2C72.6934 269.613 72.5867 270.04 72.5067 270.48C72.4401 270.907 72.3934 271.333 72.3667 271.76C72.3401 272.187 72.3267 272.573 72.3267 272.92Z" fill="#6A6A6A"/>
<path d="M48.6602 224.08L54.0002 218.88C54.3335 218.56 54.6268 218.267 54.8802 218C55.1335 217.72 55.3402 217.453 55.5002 217.2C55.6735 216.933 55.8002 216.66 55.8802 216.38C55.9602 216.1 56.0002 215.787 56.0002 215.44C56.0002 215.067 55.9335 214.733 55.8002 214.44C55.6668 214.147 55.4802 213.9 55.2402 213.7C55.0135 213.487 54.7402 213.327 54.4202 213.22C54.1135 213.1 53.7802 213.04 53.4202 213.04C52.7002 213.04 52.1068 213.247 51.6402 213.66C51.1735 214.073 50.8735 214.62 50.7402 215.3L48.9202 215.14C49.0135 214.567 49.1868 214.06 49.4402 213.62C49.7068 213.167 50.0335 212.793 50.4202 212.5C50.8202 212.207 51.2668 211.987 51.7602 211.84C52.2535 211.68 52.7868 211.6 53.3602 211.6C53.9468 211.6 54.5002 211.687 55.0202 211.86C55.5402 212.02 55.9935 212.26 56.3802 212.58C56.7802 212.9 57.0935 213.3 57.3202 213.78C57.5602 214.26 57.6802 214.813 57.6802 215.44C57.6802 216 57.6002 216.507 57.4402 216.96C57.2935 217.413 57.0868 217.833 56.8202 218.22C56.5668 218.593 56.2735 218.953 55.9402 219.3C55.6202 219.633 55.2802 219.967 54.9202 220.3L50.5602 224.4V224.44H57.7802V226H48.6602V224.08ZM59.5334 218.92C59.5334 218.12 59.6001 217.287 59.7334 216.42C59.8668 215.553 60.1134 214.767 60.4734 214.06C60.8334 213.34 61.3201 212.753 61.9334 212.3C62.5601 211.833 63.3601 211.6 64.3334 211.6C65.3068 211.6 66.1001 211.833 66.7134 212.3C67.3401 212.753 67.8334 213.34 68.1934 214.06C68.5534 214.767 68.8001 215.553 68.9334 216.42C69.0668 217.287 69.1334 218.12 69.1334 218.92C69.1334 219.72 69.0668 220.553 68.9334 221.42C68.8001 222.287 68.5534 223.08 68.1934 223.8C67.8334 224.507 67.3401 225.093 66.7134 225.56C66.1001 226.013 65.3068 226.24 64.3334 226.24C63.3601 226.24 62.5601 226.013 61.9334 225.56C61.3201 225.093 60.8334 224.507 60.4734 223.8C60.1134 223.08 59.8668 222.287 59.7334 221.42C59.6001 220.553 59.5334 219.72 59.5334 218.92ZM61.2134 218.92C61.2134 219.267 61.2268 219.653 61.2534 220.08C61.2801 220.507 61.3268 220.94 61.3934 221.38C61.4734 221.807 61.5801 222.227 61.7134 222.64C61.8601 223.053 62.0468 223.42 62.2734 223.74C62.5134 224.06 62.8001 224.32 63.1334 224.52C63.4668 224.707 63.8668 224.8 64.3334 224.8C64.8001 224.8 65.2001 224.707 65.5334 224.52C65.8668 224.32 66.1468 224.06 66.3734 223.74C66.6134 223.42 66.8001 223.053 66.9334 222.64C67.0801 222.227 67.1868 221.807 67.2534 221.38C67.3334 220.94 67.3868 220.507 67.4134 220.08C67.4401 219.653 67.4534 219.267 67.4534 218.92C67.4534 218.573 67.4401 218.187 67.4134 217.76C67.3868 217.333 67.3334 216.907 67.2534 216.48C67.1868 216.04 67.0801 215.613 66.9334 215.2C66.8001 214.787 66.6134 214.42 66.3734 214.1C66.1468 213.78 65.8668 213.527 65.5334 213.34C65.2001 213.14 64.8001 213.04 64.3334 213.04C63.8668 213.04 63.4668 213.14 63.1334 213.34C62.8001 213.527 62.5134 213.78 62.2734 214.1C62.0468 214.42 61.8601 214.787 61.7134 215.2C61.5801 215.613 61.4734 216.04 61.3934 216.48C61.3268 216.907 61.2801 217.333 61.2534 217.76C61.2268 218.187 61.2134 218.573 61.2134 218.92ZM70.6467 218.92C70.6467 218.12 70.7134 217.287 70.8467 216.42C70.9801 215.553 71.2267 214.767 71.5867 214.06C71.9467 213.34 72.4334 212.753 73.0467 212.3C73.6734 211.833 74.4734 211.6 75.4467 211.6C76.4201 211.6 77.2134 211.833 77.8267 212.3C78.4534 212.753 78.9467 213.34 79.3067 214.06C79.6667 214.767 79.9134 215.553 80.0467 216.42C80.1801 217.287 80.2467 218.12 80.2467 218.92C80.2467 219.72 80.1801 220.553 80.0467 221.42C79.9134 222.287 79.6667 223.08 79.3067 223.8C78.9467 224.507 78.4534 225.093 77.8267 225.56C77.2134 226.013 76.4201 226.24 75.4467 226.24C74.4734 226.24 73.6734 226.013 73.0467 225.56C72.4334 225.093 71.9467 224.507 71.5867 223.8C71.2267 223.08 70.9801 222.287 70.8467 221.42C70.7134 220.553 70.6467 219.72 70.6467 218.92ZM72.3267 218.92C72.3267 219.267 72.3401 219.653 72.3667 220.08C72.3934 220.507 72.4401 220.94 72.5067 221.38C72.5867 221.807 72.6934 222.227 72.8267 222.64C72.9734 223.053 73.1601 223.42 73.3867 223.74C73.6267 224.06 73.9134 224.32 74.2467 224.52C74.5801 224.707 74.9801 224.8 75.4467 224.8C75.9134 224.8 76.3134 224.707 76.6467 224.52C76.9801 224.32 77.2601 224.06 77.4867 223.74C77.7267 223.42 77.9134 223.053 78.0467 222.64C78.1934 222.227 78.3001 221.807 78.3667 221.38C78.4467 220.94 78.5001 220.507 78.5267 220.08C78.5534 219.653 78.5667 219.267 78.5667 218.92C78.5667 218.573 78.5534 218.187 78.5267 217.76C78.5001 217.333 78.4467 216.907 78.3667 216.48C78.3001 216.04 78.1934 215.613 78.0467 215.2C77.9134 214.787 77.7267 214.42 77.4867 214.1C77.2601 213.78 76.9801 213.527 76.6467 213.34C76.3134 213.14 75.9134 213.04 75.4467 213.04C74.9801 213.04 74.5801 213.14 74.2467 213.34C73.9134 213.527 73.6267 213.78 73.3867 214.1C73.1601 214.42 72.9734 214.787 72.8267 215.2C72.6934 215.613 72.5867 216.04 72.5067 216.48C72.4401 216.907 72.3934 217.333 72.3667 217.76C72.3401 218.187 72.3267 218.573 72.3267 218.92Z" fill="#6A6A6A"/>
<path d="M48.6602 170.08L54.0002 164.88C54.3335 164.56 54.6268 164.267 54.8802 164C55.1335 163.72 55.3402 163.453 55.5002 163.2C55.6735 162.933 55.8002 162.66 55.8802 162.38C55.9602 162.1 56.0002 161.787 56.0002 161.44C56.0002 161.067 55.9335 160.733 55.8002 160.44C55.6668 160.147 55.4802 159.9 55.2402 159.7C55.0135 159.487 54.7402 159.327 54.4202 159.22C54.1135 159.1 53.7802 159.04 53.4202 159.04C52.7002 159.04 52.1068 159.247 51.6402 159.66C51.1735 160.073 50.8735 160.62 50.7402 161.3L48.9202 161.14C49.0135 160.567 49.1868 160.06 49.4402 159.62C49.7068 159.167 50.0335 158.793 50.4202 158.5C50.8202 158.207 51.2668 157.987 51.7602 157.84C52.2535 157.68 52.7868 157.6 53.3602 157.6C53.9468 157.6 54.5002 157.687 55.0202 157.86C55.5402 158.02 55.9935 158.26 56.3802 158.58C56.7802 158.9 57.0935 159.3 57.3202 159.78C57.5602 160.26 57.6802 160.813 57.6802 161.44C57.6802 162 57.6002 162.507 57.4402 162.96C57.2935 163.413 57.0868 163.833 56.8202 164.22C56.5668 164.593 56.2735 164.953 55.9402 165.3C55.6202 165.633 55.2802 165.967 54.9202 166.3L50.5602 170.4V170.44H57.7802V172H48.6602V170.08ZM68.2534 159.4H62.4734L62.4134 163.22C62.6801 163.087 62.9734 163 63.2934 162.96C63.6268 162.907 63.9401 162.88 64.2334 162.88C64.9134 162.88 65.5268 163 66.0734 163.24C66.6334 163.467 67.1134 163.793 67.5134 164.22C67.9134 164.633 68.2201 165.127 68.4334 165.7C68.6468 166.26 68.7534 166.873 68.7534 167.54C68.7534 168.247 68.6268 168.893 68.3734 169.48C68.1334 170.053 67.7934 170.547 67.3534 170.96C66.9268 171.36 66.4134 171.673 65.8134 171.9C65.2268 172.127 64.5868 172.24 63.8934 172.24C62.8134 172.24 61.9401 172.007 61.2734 171.54C60.6201 171.073 60.1001 170.447 59.7134 169.66L61.3934 169.02C61.6334 169.553 61.9801 169.987 62.4334 170.32C62.9001 170.64 63.4334 170.8 64.0334 170.8C64.4601 170.8 64.8534 170.727 65.2134 170.58C65.5868 170.42 65.9068 170.2 66.1734 169.92C66.4534 169.627 66.6734 169.28 66.8334 168.88C66.9934 168.48 67.0734 168.033 67.0734 167.54C67.0734 167.02 66.9801 166.56 66.7934 166.16C66.6201 165.76 66.3734 165.427 66.0534 165.16C65.7468 164.88 65.3801 164.673 64.9534 164.54C64.5268 164.393 64.0668 164.32 63.5734 164.32C63.0934 164.32 62.6001 164.407 62.0934 164.58C61.5868 164.74 61.1201 164.947 60.6934 165.2L60.8334 157.84H68.2534V159.4ZM70.6467 164.92C70.6467 164.12 70.7134 163.287 70.8467 162.42C70.9801 161.553 71.2267 160.767 71.5867 160.06C71.9467 159.34 72.4334 158.753 73.0467 158.3C73.6734 157.833 74.4734 157.6 75.4467 157.6C76.4201 157.6 77.2134 157.833 77.8267 158.3C78.4534 158.753 78.9467 159.34 79.3067 160.06C79.6667 160.767 79.9134 161.553 80.0467 162.42C80.1801 163.287 80.2467 164.12 80.2467 164.92C80.2467 165.72 80.1801 166.553 80.0467 167.42C79.9134 168.287 79.6667 169.08 79.3067 169.8C78.9467 170.507 78.4534 171.093 77.8267 171.56C77.2134 172.013 76.4201 172.24 75.4467 172.24C74.4734 172.24 73.6734 172.013 73.0467 171.56C72.4334 171.093 71.9467 170.507 71.5867 169.8C71.2267 169.08 70.9801 168.287 70.8467 167.42C70.7134 166.553 70.6467 165.72 70.6467 164.92ZM72.3267 164.92C72.3267 165.267 72.3401 165.653 72.3667 166.08C72.3934 166.507 72.4401 166.94 72.5067 167.38C72.5867 167.807 72.6934 168.227 72.8267 168.64C72.9734 169.053 73.1601 169.42 73.3867 169.74C73.6267 170.06 73.9134 170.32 74.2467 170.52C74.5801 170.707 74.9801 170.8 75.4467 170.8C75.9134 170.8 76.3134 170.707 76.6467 170.52C76.9801 170.32 77.2601 170.06 77.4867 169.74C77.7267 169.42 77.9134 169.053 78.0467 168.64C78.1934 168.227 78.3001 167.807 78.3667 167.38C78.4467 166.94 78.5001 166.507 78.5267 166.08C78.5534 165.653 78.5667 165.267 78.5667 164.92C78.5667 164.573 78.5534 164.187 78.5267 163.76C78.5001 163.333 78.4467 162.907 78.3667 162.48C78.3001 162.04 78.1934 161.613 78.0467 161.2C77.9134 160.787 77.7267 160.42 77.4867 160.1C77.2601 159.78 76.9801 159.527 76.6467 159.34C76.3134 159.14 75.9134 159.04 75.4467 159.04C74.9801 159.04 74.5801 159.14 74.2467 159.34C73.9134 159.527 73.6267 159.78 73.3867 160.1C73.1601 160.42 72.9734 160.787 72.8267 161.2C72.6934 161.613 72.5867 162.04 72.5067 162.48C72.4401 162.907 72.3934 163.333 72.3667 163.76C72.3401 164.187 72.3267 164.573 72.3267 164.92Z" fill="#6A6A6A"/>
<path d="M51.7402 109.84H52.2602C52.6068 109.84 52.9668 109.813 53.3402 109.76C53.7268 109.707 54.0735 109.593 54.3802 109.42C54.7002 109.247 54.9602 109 55.1602 108.68C55.3735 108.347 55.4802 107.913 55.4802 107.38C55.4802 106.66 55.2535 106.093 54.8002 105.68C54.3602 105.253 53.7802 105.04 53.0602 105.04C52.4602 105.04 51.9402 105.173 51.5002 105.44C51.0602 105.707 50.7135 106.1 50.4602 106.62L48.8402 106C49.1868 105.2 49.7268 104.6 50.4602 104.2C51.2068 103.8 52.0335 103.6 52.9402 103.6C53.5002 103.6 54.0335 103.68 54.5402 103.84C55.0602 104 55.5135 104.233 55.9002 104.54C56.2868 104.847 56.5935 105.233 56.8202 105.7C57.0468 106.153 57.1602 106.687 57.1602 107.3C57.1602 108.047 56.9335 108.72 56.4802 109.32C56.0402 109.907 55.4602 110.313 54.7402 110.54V110.58C55.1935 110.66 55.5935 110.807 55.9402 111.02C56.3002 111.233 56.6068 111.5 56.8602 111.82C57.1135 112.127 57.3068 112.48 57.4402 112.88C57.5735 113.28 57.6402 113.7 57.6402 114.14C57.6402 114.82 57.5135 115.413 57.2602 115.92C57.0068 116.427 56.6668 116.853 56.2402 117.2C55.8135 117.547 55.3135 117.807 54.7402 117.98C54.1802 118.153 53.5868 118.24 52.9602 118.24C51.8802 118.24 50.9402 118.007 50.1402 117.54C49.3402 117.073 48.7602 116.313 48.4002 115.26L50.1002 114.7C50.3402 115.46 50.6802 116 51.1202 116.32C51.5602 116.64 52.1735 116.8 52.9602 116.8C53.3602 116.8 53.7335 116.733 54.0802 116.6C54.4268 116.467 54.7268 116.28 54.9802 116.04C55.2468 115.787 55.4535 115.493 55.6002 115.16C55.7602 114.813 55.8402 114.433 55.8402 114.02C55.8402 113.5 55.7335 113.067 55.5202 112.72C55.3202 112.36 55.0468 112.08 54.7002 111.88C54.3668 111.667 53.9868 111.513 53.5602 111.42C53.1335 111.327 52.7002 111.28 52.2602 111.28H51.7402V109.84ZM59.5334 110.92C59.5334 110.12 59.6001 109.287 59.7334 108.42C59.8668 107.553 60.1134 106.767 60.4734 106.06C60.8334 105.34 61.3201 104.753 61.9334 104.3C62.5601 103.833 63.3601 103.6 64.3334 103.6C65.3068 103.6 66.1001 103.833 66.7134 104.3C67.3401 104.753 67.8334 105.34 68.1934 106.06C68.5534 106.767 68.8001 107.553 68.9334 108.42C69.0668 109.287 69.1334 110.12 69.1334 110.92C69.1334 111.72 69.0668 112.553 68.9334 113.42C68.8001 114.287 68.5534 115.08 68.1934 115.8C67.8334 116.507 67.3401 117.093 66.7134 117.56C66.1001 118.013 65.3068 118.24 64.3334 118.24C63.3601 118.24 62.5601 118.013 61.9334 117.56C61.3201 117.093 60.8334 116.507 60.4734 115.8C60.1134 115.08 59.8668 114.287 59.7334 113.42C59.6001 112.553 59.5334 111.72 59.5334 110.92ZM61.2134 110.92C61.2134 111.267 61.2268 111.653 61.2534 112.08C61.2801 112.507 61.3268 112.94 61.3934 113.38C61.4734 113.807 61.5801 114.227 61.7134 114.64C61.8601 115.053 62.0468 115.42 62.2734 115.74C62.5134 116.06 62.8001 116.32 63.1334 116.52C63.4668 116.707 63.8668 116.8 64.3334 116.8C64.8001 116.8 65.2001 116.707 65.5334 116.52C65.8668 116.32 66.1468 116.06 66.3734 115.74C66.6134 115.42 66.8001 115.053 66.9334 114.64C67.0801 114.227 67.1868 113.807 67.2534 113.38C67.3334 112.94 67.3868 112.507 67.4134 112.08C67.4401 111.653 67.4534 111.267 67.4534 110.92C67.4534 110.573 67.4401 110.187 67.4134 109.76C67.3868 109.333 67.3334 108.907 67.2534 108.48C67.1868 108.04 67.0801 107.613 66.9334 107.2C66.8001 106.787 66.6134 106.42 66.3734 106.1C66.1468 105.78 65.8668 105.527 65.5334 105.34C65.2001 105.14 64.8001 105.04 64.3334 105.04C63.8668 105.04 63.4668 105.14 63.1334 105.34C62.8001 105.527 62.5134 105.78 62.2734 106.1C62.0468 106.42 61.8601 106.787 61.7134 107.2C61.5801 107.613 61.4734 108.04 61.3934 108.48C61.3268 108.907 61.2801 109.333 61.2534 109.76C61.2268 110.187 61.2134 110.573 61.2134 110.92ZM70.6467 110.92C70.6467 110.12 70.7134 109.287 70.8467 108.42C70.9801 107.553 71.2267 106.767 71.5867 106.06C71.9467 105.34 72.4334 104.753 73.0467 104.3C73.6734 103.833 74.4734 103.6 75.4467 103.6C76.4201 103.6 77.2134 103.833 77.8267 104.3C78.4534 104.753 78.9467 105.34 79.3067 106.06C79.6667 106.767 79.9134 107.553 80.0467 108.42C80.1801 109.287 80.2467 110.12 80.2467 110.92C80.2467 111.72 80.1801 112.553 80.0467 113.42C79.9134 114.287 79.6667 115.08 79.3067 115.8C78.9467 116.507 78.4534 117.093 77.8267 117.56C77.2134 118.013 76.4201 118.24 75.4467 118.24C74.4734 118.24 73.6734 118.013 73.0467 117.56C72.4334 117.093 71.9467 116.507 71.5867 115.8C71.2267 115.08 70.9801 114.287 70.8467 113.42C70.7134 112.553 70.6467 111.72 70.6467 110.92ZM72.3267 110.92C72.3267 111.267 72.3401 111.653 72.3667 112.08C72.3934 112.507 72.4401 112.94 72.5067 113.38C72.5867 113.807 72.6934 114.227 72.8267 114.64C72.9734 115.053 73.1601 115.42 73.3867 115.74C73.6267 116.06 73.9134 116.32 74.2467 116.52C74.5801 116.707 74.9801 116.8 75.4467 116.8C75.9134 116.8 76.3134 116.707 76.6467 116.52C76.9801 116.32 77.2601 116.06 77.4867 115.74C77.7267 115.42 77.9134 115.053 78.0467 114.64C78.1934 114.227 78.3001 113.807 78.3667 113.38C78.4467 112.94 78.5001 112.507 78.5267 112.08C78.5534 111.653 78.5667 111.267 78.5667 110.92C78.5667 110.573 78.5534 110.187 78.5267 109.76C78.5001 109.333 78.4467 108.907 78.3667 108.48C78.3001 108.04 78.1934 107.613 78.0467 107.2C77.9134 106.787 77.7267 106.42 77.4867 106.1C77.2601 105.78 76.9801 105.527 76.6467 105.34C76.3134 105.14 75.9134 105.04 75.4467 105.04C74.9801 105.04 74.5801 105.14 74.2467 105.34C73.9134 105.527 73.6267 105.78 73.3867 106.1C73.1601 106.42 72.9734 106.787 72.8267 107.2C72.6934 107.613 72.5867 108.04 72.5067 108.48C72.4401 108.907 72.3934 109.333 72.3667 109.76C72.3401 110.187 72.3267 110.573 72.3267 110.92Z" fill="#6A6A6A"/>
<path d="M69.76 434.92C69.76 434.12 69.8267 433.287 69.96 432.42C70.0933 431.553 70.34 430.767 70.7 430.06C71.06 429.34 71.5467 428.753 72.16 428.3C72.7867 427.833 73.5867 427.6 74.56 427.6C75.5333 427.6 76.3267 427.833 76.94 428.3C77.5667 428.753 78.06 429.34 78.42 430.06C78.78 430.767 79.0267 431.553 79.16 432.42C79.2933 433.287 79.36 434.12 79.36 434.92C79.36 435.72 79.2933 436.553 79.16 437.42C79.0267 438.287 78.78 439.08 78.42 439.8C78.06 440.507 77.5667 441.093 76.94 441.56C76.3267 442.013 75.5333 442.24 74.56 442.24C73.5867 442.24 72.7867 442.013 72.16 441.56C71.5467 441.093 71.06 440.507 70.7 439.8C70.34 439.08 70.0933 438.287 69.96 437.42C69.8267 436.553 69.76 435.72 69.76 434.92ZM71.44 434.92C71.44 435.267 71.4533 435.653 71.48 436.08C71.5067 436.507 71.5533 436.94 71.62 437.38C71.7 437.807 71.8067 438.227 71.94 438.64C72.0867 439.053 72.2733 439.42 72.5 439.74C72.74 440.06 73.0267 440.32 73.36 440.52C73.6933 440.707 74.0933 440.8 74.56 440.8C75.0267 440.8 75.4267 440.707 75.76 440.52C76.0933 440.32 76.3733 440.06 76.6 439.74C76.84 439.42 77.0267 439.053 77.16 438.64C77.3067 438.227 77.4133 437.807 77.48 437.38C77.56 436.94 77.6133 436.507 77.64 436.08C77.6667 435.653 77.68 435.267 77.68 434.92C77.68 434.573 77.6667 434.187 77.64 433.76C77.6133 433.333 77.56 432.907 77.48 432.48C77.4133 432.04 77.3067 431.613 77.16 431.2C77.0267 430.787 76.84 430.42 76.6 430.1C76.3733 429.78 76.0933 429.527 75.76 429.34C75.4267 429.14 75.0267 429.04 74.56 429.04C74.0933 429.04 73.6933 429.14 73.36 429.34C73.0267 429.527 72.74 429.78 72.5 430.1C72.2733 430.42 72.0867 430.787 71.94 431.2C71.8067 431.613 71.7 432.04 71.62 432.48C71.5533 432.907 71.5067 433.333 71.48 433.76C71.4533 434.187 71.44 434.573 71.44 434.92Z" fill="#6A6A6A"/>
<path d="M105.76 475.92C105.76 475.12 105.827 474.287 105.96 473.42C106.093 472.553 106.34 471.767 106.7 471.06C107.06 470.34 107.547 469.753 108.16 469.3C108.787 468.833 109.587 468.6 110.56 468.6C111.533 468.6 112.327 468.833 112.94 469.3C113.567 469.753 114.06 470.34 114.42 471.06C114.78 471.767 115.027 472.553 115.16 473.42C115.293 474.287 115.36 475.12 115.36 475.92C115.36 476.72 115.293 477.553 115.16 478.42C115.027 479.287 114.78 480.08 114.42 480.8C114.06 481.507 113.567 482.093 112.94 482.56C112.327 483.013 111.533 483.24 110.56 483.24C109.587 483.24 108.787 483.013 108.16 482.56C107.547 482.093 107.06 481.507 106.7 480.8C106.34 480.08 106.093 479.287 105.96 478.42C105.827 477.553 105.76 476.72 105.76 475.92ZM107.44 475.92C107.44 476.267 107.453 476.653 107.48 477.08C107.507 477.507 107.553 477.94 107.62 478.38C107.7 478.807 107.807 479.227 107.94 479.64C108.087 480.053 108.273 480.42 108.5 480.74C108.74 481.06 109.027 481.32 109.36 481.52C109.693 481.707 110.093 481.8 110.56 481.8C111.027 481.8 111.427 481.707 111.76 481.52C112.093 481.32 112.373 481.06 112.6 480.74C112.84 480.42 113.027 480.053 113.16 479.64C113.307 479.227 113.413 478.807 113.48 478.38C113.56 477.94 113.613 477.507 113.64 477.08C113.667 476.653 113.68 476.267 113.68 475.92C113.68 475.573 113.667 475.187 113.64 474.76C113.613 474.333 113.56 473.907 113.48 473.48C113.413 473.04 113.307 472.613 113.16 472.2C113.027 471.787 112.84 471.42 112.6 471.1C112.373 470.78 112.093 470.527 111.76 470.34C111.427 470.14 111.027 470.04 110.56 470.04C110.093 470.04 109.693 470.14 109.36 470.34C109.027 470.527 108.74 470.78 108.5 471.1C108.273 471.42 108.087 471.787 107.94 472.2C107.807 472.613 107.7 473.04 107.62 473.48C107.553 473.907 107.507 474.333 107.48 474.76C107.453 475.187 107.44 475.573 107.44 475.92Z" fill="#6A6A6A"/>
<path d="M211.48 470.4H205.7L205.64 474.22C205.907 474.087 206.2 474 206.52 473.96C206.853 473.907 207.167 473.88 207.46 473.88C208.14 473.88 208.753 474 209.3 474.24C209.86 474.467 210.34 474.793 210.74 475.22C211.14 475.633 211.447 476.127 211.66 476.7C211.873 477.26 211.98 477.873 211.98 478.54C211.98 479.247 211.853 479.893 211.6 480.48C211.36 481.053 211.02 481.547 210.58 481.96C210.153 482.36 209.64 482.673 209.04 482.9C208.453 483.127 207.813 483.24 207.12 483.24C206.04 483.24 205.167 483.007 204.5 482.54C203.847 482.073 203.327 481.447 202.94 480.66L204.62 480.02C204.86 480.553 205.207 480.987 205.66 481.32C206.127 481.64 206.66 481.8 207.26 481.8C207.687 481.8 208.08 481.727 208.44 481.58C208.813 481.42 209.133 481.2 209.4 480.92C209.68 480.627 209.9 480.28 210.06 479.88C210.22 479.48 210.3 479.033 210.3 478.54C210.3 478.02 210.207 477.56 210.02 477.16C209.847 476.76 209.6 476.427 209.28 476.16C208.973 475.88 208.607 475.673 208.18 475.54C207.753 475.393 207.293 475.32 206.8 475.32C206.32 475.32 205.827 475.407 205.32 475.58C204.813 475.74 204.347 475.947 203.92 476.2L204.06 468.84H211.48V470.4Z" fill="#6A6A6A"/>
<path d="M306.2 483H304.52V471H304.48L301.94 473.14L300.94 471.92L304.74 468.84H306.2V483ZM310.873 475.92C310.873 475.12 310.94 474.287 311.073 473.42C311.207 472.553 311.453 471.767 311.813 471.06C312.173 470.34 312.66 469.753 313.273 469.3C313.9 468.833 314.7 468.6 315.673 468.6C316.647 468.6 317.44 468.833 318.053 469.3C318.68 469.753 319.173 470.34 319.533 471.06C319.893 471.767 320.14 472.553 320.273 473.42C320.407 474.287 320.473 475.12 320.473 475.92C320.473 476.72 320.407 477.553 320.273 478.42C320.14 479.287 319.893 480.08 319.533 480.8C319.173 481.507 318.68 482.093 318.053 482.56C317.44 483.013 316.647 483.24 315.673 483.24C314.7 483.24 313.9 483.013 313.273 482.56C312.66 482.093 312.173 481.507 311.813 480.8C311.453 480.08 311.207 479.287 311.073 478.42C310.94 477.553 310.873 476.72 310.873 475.92ZM312.553 475.92C312.553 476.267 312.567 476.653 312.593 477.08C312.62 477.507 312.667 477.94 312.733 478.38C312.813 478.807 312.92 479.227 313.053 479.64C313.2 480.053 313.387 480.42 313.613 480.74C313.853 481.06 314.14 481.32 314.473 481.52C314.807 481.707 315.207 481.8 315.673 481.8C316.14 481.8 316.54 481.707 316.873 481.52C317.207 481.32 317.487 481.06 317.713 480.74C317.953 480.42 318.14 480.053 318.273 479.64C318.42 479.227 318.527 478.807 318.593 478.38C318.673 477.94 318.727 477.507 318.753 477.08C318.78 476.653 318.793 476.267 318.793 475.92C318.793 475.573 318.78 475.187 318.753 474.76C318.727 474.333 318.673 473.907 318.593 473.48C318.527 473.04 318.42 472.613 318.273 472.2C318.14 471.787 317.953 471.42 317.713 471.1C317.487 470.78 317.207 470.527 316.873 470.34C316.54 470.14 316.14 470.04 315.673 470.04C315.207 470.04 314.807 470.14 314.473 470.34C314.14 470.527 313.853 470.78 313.613 471.1C313.387 471.42 313.2 471.787 313.053 472.2C312.92 472.613 312.813 473.04 312.733 473.48C312.667 473.907 312.62 474.333 312.593 474.76C312.567 475.187 312.553 475.573 312.553 475.92Z" fill="#6A6A6A"/>
<path d="M414.2 483H412.52V471H412.48L409.94 473.14L408.94 471.92L412.74 468.84H414.2V483ZM427.593 470.4H421.813L421.753 474.22C422.02 474.087 422.313 474 422.633 473.96C422.967 473.907 423.28 473.88 423.573 473.88C424.253 473.88 424.867 474 425.413 474.24C425.973 474.467 426.453 474.793 426.853 475.22C427.253 475.633 427.56 476.127 427.773 476.7C427.987 477.26 428.093 477.873 428.093 478.54C428.093 479.247 427.967 479.893 427.713 480.48C427.473 481.053 427.133 481.547 426.693 481.96C426.267 482.36 425.753 482.673 425.153 482.9C424.567 483.127 423.927 483.24 423.233 483.24C422.153 483.24 421.28 483.007 420.613 482.54C419.96 482.073 419.44 481.447 419.053 480.66L420.733 480.02C420.973 480.553 421.32 480.987 421.773 481.32C422.24 481.64 422.773 481.8 423.373 481.8C423.8 481.8 424.193 481.727 424.553 481.58C424.927 481.42 425.247 481.2 425.513 480.92C425.793 480.627 426.013 480.28 426.173 479.88C426.333 479.48 426.413 479.033 426.413 478.54C426.413 478.02 426.32 477.56 426.133 477.16C425.96 476.76 425.713 476.427 425.393 476.16C425.087 475.88 424.72 475.673 424.293 475.54C423.867 475.393 423.407 475.32 422.913 475.32C422.433 475.32 421.94 475.407 421.433 475.58C420.927 475.74 420.46 475.947 420.033 476.2L420.173 468.84H427.593V470.4Z" fill="#6A6A6A"/>
<path d="M516 481.08L521.34 475.88C521.673 475.56 521.967 475.267 522.22 475C522.473 474.72 522.68 474.453 522.84 474.2C523.013 473.933 523.14 473.66 523.22 473.38C523.3 473.1 523.34 472.787 523.34 472.44C523.34 472.067 523.273 471.733 523.14 471.44C523.007 471.147 522.82 470.9 522.58 470.7C522.353 470.487 522.08 470.327 521.76 470.22C521.453 470.1 521.12 470.04 520.76 470.04C520.04 470.04 519.447 470.247 518.98 470.66C518.513 471.073 518.213 471.62 518.08 472.3L516.26 472.14C516.353 471.567 516.527 471.06 516.78 470.62C517.047 470.167 517.373 469.793 517.76 469.5C518.16 469.207 518.607 468.987 519.1 468.84C519.593 468.68 520.127 468.6 520.7 468.6C521.287 468.6 521.84 468.687 522.36 468.86C522.88 469.02 523.333 469.26 523.72 469.58C524.12 469.9 524.433 470.3 524.66 470.78C524.9 471.26 525.02 471.813 525.02 472.44C525.02 473 524.94 473.507 524.78 473.96C524.633 474.413 524.427 474.833 524.16 475.22C523.907 475.593 523.613 475.953 523.28 476.3C522.96 476.633 522.62 476.967 522.26 477.3L517.9 481.4V481.44H525.12V483H516V481.08ZM526.873 475.92C526.873 475.12 526.94 474.287 527.073 473.42C527.207 472.553 527.453 471.767 527.813 471.06C528.173 470.34 528.66 469.753 529.273 469.3C529.9 468.833 530.7 468.6 531.673 468.6C532.647 468.6 533.44 468.833 534.053 469.3C534.68 469.753 535.173 470.34 535.533 471.06C535.893 471.767 536.14 472.553 536.273 473.42C536.407 474.287 536.473 475.12 536.473 475.92C536.473 476.72 536.407 477.553 536.273 478.42C536.14 479.287 535.893 480.08 535.533 480.8C535.173 481.507 534.68 482.093 534.053 482.56C533.44 483.013 532.647 483.24 531.673 483.24C530.7 483.24 529.9 483.013 529.273 482.56C528.66 482.093 528.173 481.507 527.813 480.8C527.453 480.08 527.207 479.287 527.073 478.42C526.94 477.553 526.873 476.72 526.873 475.92ZM528.553 475.92C528.553 476.267 528.567 476.653 528.593 477.08C528.62 477.507 528.667 477.94 528.733 478.38C528.813 478.807 528.92 479.227 529.053 479.64C529.2 480.053 529.387 480.42 529.613 480.74C529.853 481.06 530.14 481.32 530.473 481.52C530.807 481.707 531.207 481.8 531.673 481.8C532.14 481.8 532.54 481.707 532.873 481.52C533.207 481.32 533.487 481.06 533.713 480.74C533.953 480.42 534.14 480.053 534.273 479.64C534.42 479.227 534.527 478.807 534.593 478.38C534.673 477.94 534.727 477.507 534.753 477.08C534.78 476.653 534.793 476.267 534.793 475.92C534.793 475.573 534.78 475.187 534.753 474.76C534.727 474.333 534.673 473.907 534.593 473.48C534.527 473.04 534.42 472.613 534.273 472.2C534.14 471.787 533.953 471.42 533.713 471.1C533.487 470.78 533.207 470.527 532.873 470.34C532.54 470.14 532.14 470.04 531.673 470.04C531.207 470.04 530.807 470.14 530.473 470.34C530.14 470.527 529.853 470.78 529.613 471.1C529.387 471.42 529.2 471.787 529.053 472.2C528.92 472.613 528.813 473.04 528.733 473.48C528.667 473.907 528.62 474.333 528.593 474.76C528.567 475.187 528.553 475.573 528.553 475.92Z" fill="#6A6A6A"/>
<path d="M624 481.08L629.34 475.88C629.673 475.56 629.967 475.267 630.22 475C630.473 474.72 630.68 474.453 630.84 474.2C631.013 473.933 631.14 473.66 631.22 473.38C631.3 473.1 631.34 472.787 631.34 472.44C631.34 472.067 631.273 471.733 631.14 471.44C631.007 471.147 630.82 470.9 630.58 470.7C630.353 470.487 630.08 470.327 629.76 470.22C629.453 470.1 629.12 470.04 628.76 470.04C628.04 470.04 627.447 470.247 626.98 470.66C626.513 471.073 626.213 471.62 626.08 472.3L624.26 472.14C624.353 471.567 624.527 471.06 624.78 470.62C625.047 470.167 625.373 469.793 625.76 469.5C626.16 469.207 626.607 468.987 627.1 468.84C627.593 468.68 628.127 468.6 628.7 468.6C629.287 468.6 629.84 468.687 630.36 468.86C630.88 469.02 631.333 469.26 631.72 469.58C632.12 469.9 632.433 470.3 632.66 470.78C632.9 471.26 633.02 471.813 633.02 472.44C633.02 473 632.94 473.507 632.78 473.96C632.633 474.413 632.427 474.833 632.16 475.22C631.907 475.593 631.613 475.953 631.28 476.3C630.96 476.633 630.62 476.967 630.26 477.3L625.9 481.4V481.44H633.12V483H624V481.08ZM643.593 470.4H637.813L637.753 474.22C638.02 474.087 638.313 474 638.633 473.96C638.967 473.907 639.28 473.88 639.573 473.88C640.253 473.88 640.867 474 641.413 474.24C641.973 474.467 642.453 474.793 642.853 475.22C643.253 475.633 643.56 476.127 643.773 476.7C643.987 477.26 644.093 477.873 644.093 478.54C644.093 479.247 643.967 479.893 643.713 480.48C643.473 481.053 643.133 481.547 642.693 481.96C642.267 482.36 641.753 482.673 641.153 482.9C640.567 483.127 639.927 483.24 639.233 483.24C638.153 483.24 637.28 483.007 636.613 482.54C635.96 482.073 635.44 481.447 635.053 480.66L636.733 480.02C636.973 480.553 637.32 480.987 637.773 481.32C638.24 481.64 638.773 481.8 639.373 481.8C639.8 481.8 640.193 481.727 640.553 481.58C640.927 481.42 641.247 481.2 641.513 480.92C641.793 480.627 642.013 480.28 642.173 479.88C642.333 479.48 642.413 479.033 642.413 478.54C642.413 478.02 642.32 477.56 642.133 477.16C641.96 476.76 641.713 476.427 641.393 476.16C641.087 475.88 640.72 475.673 640.293 475.54C639.867 475.393 639.407 475.32 638.913 475.32C638.433 475.32 637.94 475.407 637.433 475.58C636.927 475.74 636.46 475.947 636.033 476.2L636.173 468.84H643.593V470.4Z" fill="#6A6A6A"/>
<path d="M0.84 287.24L0.84 283.04C0.84 282.387 0.906666 281.767 1.04 281.18C1.16 280.58 1.37333 280.053 1.68 279.6C1.97333 279.133 2.37333 278.767 2.88 278.5C3.37333 278.22 3.98667 278.08 4.72 278.08C5.49333 278.08 6.13333 278.227 6.64 278.52C7.14667 278.813 7.54667 279.193 7.84 279.66C8.13333 280.113 8.34 280.613 8.46 281.16C8.58 281.707 8.64 282.227 8.64 282.72L8.64 285.56L15 285.56L15 287.24L0.84 287.24ZM7.08 285.56L7.08 282.72C7.08 281.88 6.89333 281.2 6.52 280.68C6.13333 280.147 5.54 279.88 4.74 279.88C3.94 279.88 3.35333 280.147 2.98 280.68C2.59333 281.2 2.4 281.88 2.4 282.72L2.4 285.56L7.08 285.56ZM6.84 275.785C6.34667 275.305 5.98667 274.738 5.76 274.085C5.52 273.418 5.4 272.745 5.4 272.065C5.4 270.678 5.72667 269.678 6.38 269.065C7.03333 268.451 8.02667 268.145 9.36 268.145L13.38 268.145C13.6467 268.145 13.9267 268.131 14.22 268.105C14.5 268.078 14.76 268.045 15 268.005L15 269.505C14.7867 269.558 14.5533 269.591 14.3 269.605C14.0333 269.605 13.8 269.605 13.6 269.605L13.6 269.645C14.08 269.951 14.4733 270.365 14.78 270.885C15.0867 271.391 15.24 272.005 15.24 272.725C15.24 273.205 15.18 273.658 15.06 274.085C14.94 274.498 14.7667 274.865 14.54 275.185C14.3 275.491 14.0067 275.738 13.66 275.925C13.3133 276.111 12.9133 276.205 12.46 276.205C11.6867 276.205 11.08 276.005 10.64 275.605C10.2 275.205 9.87333 274.711 9.66 274.125C9.44667 273.525 9.31333 272.885 9.26 272.205C9.20667 271.511 9.18 270.878 9.18 270.305L9.18 269.705L8.9 269.705C8.22 269.705 7.70667 269.911 7.36 270.325C7.01333 270.725 6.84 271.291 6.84 272.025C6.84 272.531 6.92667 273.031 7.1 273.525C7.26 274.005 7.51333 274.431 7.86 274.805L6.84 275.785ZM10.5 271.265C10.5 272.265 10.64 273.058 10.92 273.645C11.2 274.231 11.66 274.525 12.3 274.525C12.8867 274.525 13.3067 274.331 13.56 273.945C13.8 273.545 13.92 273.051 13.92 272.465C13.92 272.011 13.8467 271.618 13.7 271.285C13.54 270.938 13.3333 270.651 13.08 270.425C12.8267 270.198 12.5333 270.025 12.2 269.905C11.8533 269.785 11.4867 269.718 11.1 269.705L10.5 269.705L10.5 271.265ZM17.14 261.853C17.54 262.013 17.9 262.18 18.22 262.353C18.5533 262.513 18.8333 262.713 19.06 262.953C19.3 263.18 19.48 263.46 19.6 263.793C19.7333 264.113 19.8 264.507 19.8 264.973C19.8 265.2 19.7867 265.44 19.76 265.693C19.7333 265.933 19.6667 266.16 19.56 266.373L18.2 266.173C18.2667 266.013 18.3067 265.847 18.32 265.673C18.3467 265.5 18.36 265.3 18.36 265.073C18.36 264.567 18.22 264.193 17.94 263.953C17.66 263.713 17.2867 263.507 16.82 263.333L15.06 262.693L5.64 266.573L5.64 264.753L12.98 261.853L12.98 261.813L5.64 259.033L5.64 257.333L17.14 261.853ZM7.86 255.645C7.43333 255.645 7.03333 255.658 6.66 255.685C6.28666 255.712 5.94666 255.725 5.64 255.725L5.64 254.245C5.89333 254.245 6.14666 254.238 6.4 254.225C6.65333 254.212 6.91333 254.205 7.18 254.205L7.18 254.165C6.95333 254.058 6.73333 253.912 6.52 253.725C6.30666 253.525 6.12 253.292 5.96 253.025C5.78666 252.758 5.65333 252.458 5.56 252.125C5.45333 251.792 5.4 251.432 5.4 251.045C5.4 250.538 5.46666 250.118 5.6 249.785C5.72 249.438 5.87333 249.152 6.06 248.925C6.23333 248.698 6.42666 248.525 6.64 248.405C6.84 248.272 7.02 248.165 7.18 248.085C6.62 247.738 6.18666 247.338 5.88 246.885C5.56 246.432 5.4 245.845 5.4 245.125C5.4 244.458 5.49333 243.898 5.68 243.445C5.85333 242.992 6.11333 242.625 6.46 242.345C6.79333 242.065 7.20666 241.865 7.7 241.745C8.18 241.625 8.72 241.565 9.32 241.565L15 241.565L15 243.125L9.4 243.125C9.08 243.125 8.76666 243.158 8.46 243.225C8.15333 243.292 7.88 243.412 7.64 243.585C7.4 243.758 7.20666 243.992 7.06 244.285C6.91333 244.578 6.84 244.952 6.84 245.405C6.84 245.738 6.90666 246.052 7.04 246.345C7.17333 246.638 7.36 246.898 7.6 247.125C7.84 247.338 8.13333 247.512 8.48 247.645C8.81333 247.765 9.18666 247.825 9.6 247.825L15 247.825L15 249.385L9.7 249.385C8.66 249.385 7.92666 249.525 7.5 249.805C7.06 250.085 6.84 250.545 6.84 251.185C6.84 251.692 6.92666 252.132 7.1 252.505C7.27333 252.865 7.52 253.165 7.84 253.405C8.16 253.632 8.54 253.805 8.98 253.925C9.42 254.032 9.90666 254.085 10.44 254.085L15 254.085L15 255.645L7.86 255.645ZM13.3 230.254C14.02 230.814 14.5267 231.427 14.82 232.094C15.1 232.76 15.24 233.534 15.24 234.414C15.24 235.147 15.1133 235.807 14.86 236.394C14.5933 236.98 14.24 237.48 13.8 237.894C13.36 238.294 12.84 238.607 12.24 238.834C11.64 239.047 11 239.154 10.32 239.154C9.6 239.154 8.94 239.034 8.34 238.794C7.72666 238.554 7.20666 238.22 6.78 237.794C6.34 237.367 6 236.86 5.76 236.274C5.52 235.687 5.4 235.047 5.4 234.354C5.4 233.7 5.51333 233.1 5.74 232.554C5.95333 232.007 6.27333 231.54 6.7 231.154C7.11333 230.754 7.62666 230.447 8.24 230.234C8.84 230.02 9.52666 229.914 10.3 229.914L10.8 229.914L10.8 237.474C11.2 237.447 11.5867 237.354 11.96 237.194C12.32 237.02 12.64 236.8 12.92 236.534C13.1867 236.267 13.4 235.954 13.56 235.594C13.72 235.234 13.8 234.84 13.8 234.414C13.8 233.734 13.68 233.16 13.44 232.694C13.2 232.227 12.8467 231.807 12.38 231.434L13.3 230.254ZM9.48 231.594C8.68 231.62 8.04 231.88 7.56 232.374C7.08 232.867 6.84 233.547 6.84 234.414C6.84 235.28 7.08 235.98 7.56 236.514C8.04 237.047 8.68 237.367 9.48 237.474L9.48 231.594ZM7.86 227.5C7.43333 227.5 7.03333 227.514 6.66 227.54C6.28666 227.567 5.94666 227.58 5.64 227.58L5.64 226.1C5.89333 226.1 6.14666 226.094 6.4 226.08C6.65333 226.067 6.91333 226.06 7.18 226.06L7.18 226.02C6.95333 225.914 6.73333 225.767 6.52 225.58C6.30666 225.38 6.12 225.147 5.96 224.88C5.78666 224.614 5.65333 224.314 5.56 223.98C5.45333 223.647 5.4 223.287 5.4 222.9C5.4 222.287 5.49333 221.76 5.68 221.32C5.86666 220.867 6.12666 220.494 6.46 220.2C6.79333 219.907 7.2 219.694 7.68 219.56C8.14666 219.414 8.66 219.34 9.22 219.34L15 219.34L15 220.9L9.38 220.9C8.59333 220.9 7.97333 221.074 7.52 221.42C7.06666 221.767 6.84 222.307 6.84 223.04C6.84 223.547 6.92666 223.987 7.1 224.36C7.27333 224.72 7.52 225.02 7.84 225.26C8.16 225.487 8.54 225.66 8.98 225.78C9.42 225.887 9.90666 225.94 10.44 225.94L15 225.94L15 227.5L7.86 227.5ZM6.96 211.267L6.96 214.027L11.64 214.027C11.9467 214.027 12.2333 214.021 12.5 214.007C12.7533 213.994 12.98 213.941 13.18 213.847C13.3667 213.754 13.52 213.614 13.64 213.427C13.7467 213.241 13.8 212.974 13.8 212.627C13.8 212.401 13.7733 212.167 13.72 211.927C13.6667 211.687 13.5867 211.461 13.48 211.247L14.9 211.187C15.02 211.454 15.1067 211.754 15.16 212.087C15.2133 212.407 15.24 212.714 15.24 213.007C15.24 213.567 15.1667 214.014 15.02 214.347C14.8733 214.681 14.6667 214.941 14.4 215.127C14.1333 215.314 13.8067 215.441 13.42 215.507C13.02 215.561 12.58 215.587 12.1 215.587L6.96 215.587L6.96 217.627L5.64 217.627L5.64 215.587L2.98 215.587L2.98 214.027L5.64 214.027L5.64 211.267L6.96 211.267Z" fill="#1E1E1E"/>
<path d="M358.1 522.9L352.82 514.84H354.96L358.94 521.24L363.04 514.84H365.06L359.78 522.9V529H358.1V522.9ZM372.488 527.3C371.928 528.02 371.315 528.527 370.648 528.82C369.982 529.1 369.208 529.24 368.328 529.24C367.595 529.24 366.935 529.113 366.348 528.86C365.762 528.593 365.262 528.24 364.848 527.8C364.448 527.36 364.135 526.84 363.908 526.24C363.695 525.64 363.588 525 363.588 524.32C363.588 523.6 363.708 522.94 363.948 522.34C364.188 521.727 364.522 521.207 364.948 520.78C365.375 520.34 365.882 520 366.468 519.76C367.055 519.52 367.695 519.4 368.388 519.4C369.042 519.4 369.642 519.513 370.188 519.74C370.735 519.953 371.202 520.273 371.588 520.7C371.988 521.113 372.295 521.627 372.508 522.24C372.722 522.84 372.828 523.527 372.828 524.3V524.8H365.268C365.295 525.2 365.388 525.587 365.548 525.96C365.722 526.32 365.942 526.64 366.208 526.92C366.475 527.187 366.788 527.4 367.148 527.56C367.508 527.72 367.902 527.8 368.328 527.8C369.008 527.8 369.582 527.68 370.048 527.44C370.515 527.2 370.935 526.847 371.308 526.38L372.488 527.3ZM371.148 523.48C371.122 522.68 370.862 522.04 370.368 521.56C369.875 521.08 369.195 520.84 368.328 520.84C367.462 520.84 366.762 521.08 366.228 521.56C365.695 522.04 365.375 522.68 365.268 523.48H371.148ZM375.122 520.84C375.602 520.347 376.168 519.987 376.822 519.76C377.488 519.52 378.162 519.4 378.842 519.4C380.228 519.4 381.228 519.727 381.842 520.38C382.455 521.033 382.762 522.027 382.762 523.36V527.38C382.762 527.647 382.775 527.927 382.802 528.22C382.828 528.5 382.862 528.76 382.902 529H381.402C381.348 528.787 381.315 528.553 381.302 528.3C381.302 528.033 381.302 527.8 381.302 527.6H381.262C380.955 528.08 380.542 528.473 380.022 528.78C379.515 529.087 378.902 529.24 378.182 529.24C377.702 529.24 377.248 529.18 376.822 529.06C376.408 528.94 376.042 528.767 375.722 528.54C375.415 528.3 375.168 528.007 374.982 527.66C374.795 527.313 374.702 526.913 374.702 526.46C374.702 525.687 374.902 525.08 375.302 524.64C375.702 524.2 376.195 523.873 376.782 523.66C377.382 523.447 378.022 523.313 378.702 523.26C379.395 523.207 380.028 523.18 380.602 523.18H381.202V522.9C381.202 522.22 380.995 521.707 380.582 521.36C380.182 521.013 379.615 520.84 378.882 520.84C378.375 520.84 377.875 520.927 377.382 521.1C376.902 521.26 376.475 521.513 376.102 521.86L375.122 520.84ZM379.642 524.5C378.642 524.5 377.848 524.64 377.262 524.92C376.675 525.2 376.382 525.66 376.382 526.3C376.382 526.887 376.575 527.307 376.962 527.56C377.362 527.8 377.855 527.92 378.442 527.92C378.895 527.92 379.288 527.847 379.622 527.7C379.968 527.54 380.255 527.333 380.482 527.08C380.708 526.827 380.882 526.533 381.002 526.2C381.122 525.853 381.188 525.487 381.202 525.1V524.5H379.642ZM385.613 521.86C385.613 521.433 385.599 521.033 385.573 520.66C385.546 520.287 385.533 519.947 385.533 519.64H387.013C387.013 519.893 387.019 520.147 387.033 520.4C387.046 520.653 387.053 520.913 387.053 521.18H387.093C387.199 520.953 387.346 520.733 387.533 520.52C387.733 520.307 387.966 520.12 388.233 519.96C388.499 519.787 388.799 519.653 389.133 519.56C389.466 519.453 389.826 519.4 390.213 519.4C390.319 519.4 390.426 519.407 390.533 519.42C390.639 519.433 390.746 519.46 390.853 519.5L390.753 521.08C390.486 521 390.206 520.96 389.913 520.96C388.953 520.96 388.253 521.273 387.813 521.9C387.386 522.513 387.173 523.36 387.173 524.44V529H385.613V521.86ZM392.844 526.54C393.151 526.927 393.484 527.233 393.844 527.46C394.217 527.687 394.684 527.8 395.244 527.8C395.484 527.8 395.724 527.773 395.964 527.72C396.217 527.667 396.444 527.58 396.644 527.46C396.844 527.34 397.004 527.193 397.124 527.02C397.244 526.833 397.304 526.613 397.304 526.36C397.304 526.107 397.244 525.9 397.124 525.74C397.017 525.58 396.871 525.447 396.684 525.34C396.497 525.22 396.284 525.127 396.044 525.06C395.804 524.993 395.557 524.933 395.304 524.88C394.864 524.787 394.444 524.68 394.044 524.56C393.644 524.44 393.291 524.287 392.984 524.1C392.691 523.9 392.451 523.647 392.264 523.34C392.091 523.033 392.004 522.64 392.004 522.16C392.004 521.707 392.104 521.307 392.304 520.96C392.504 520.613 392.771 520.327 393.104 520.1C393.437 519.873 393.811 519.7 394.224 519.58C394.637 519.46 395.064 519.4 395.504 519.4C396.171 519.4 396.784 519.533 397.344 519.8C397.917 520.067 398.364 520.5 398.684 521.1L397.384 521.96C397.184 521.627 396.917 521.36 396.584 521.16C396.264 520.947 395.871 520.84 395.404 520.84C395.191 520.84 394.971 520.867 394.744 520.92C394.531 520.973 394.337 521.053 394.164 521.16C393.991 521.267 393.844 521.407 393.724 521.58C393.617 521.74 393.564 521.927 393.564 522.14C393.564 522.34 393.624 522.513 393.744 522.66C393.877 522.793 394.051 522.913 394.264 523.02C394.491 523.127 394.744 523.22 395.024 523.3C395.317 523.38 395.617 523.447 395.924 523.5C396.337 523.58 396.731 523.687 397.104 523.82C397.477 523.94 397.804 524.107 398.084 524.32C398.364 524.533 398.584 524.8 398.744 525.12C398.904 525.44 398.984 525.833 398.984 526.3C398.984 526.833 398.877 527.287 398.664 527.66C398.451 528.033 398.164 528.34 397.804 528.58C397.457 528.807 397.057 528.973 396.604 529.08C396.164 529.187 395.711 529.24 395.244 529.24C394.444 529.24 393.751 529.12 393.164 528.88C392.591 528.627 392.071 528.167 391.604 527.5L392.844 526.54Z" fill="#1E1E1E"/>
<path d="M16.392 29.336C13.564 29.336 11.464 28.496 9.868 26.844L12.416 24.24C13.312 25.5 14.852 26.172 16.392 26.312V20.404C12.556 19.424 10.344 17.968 10.344 14.636C10.344 11.668 12.752 9.26 16.392 8.868V6.992H17.904V8.84H18.072C20.228 8.84 22.272 9.568 23.644 10.772L21.32 13.376C20.396 12.396 19.164 11.864 17.904 11.864V17.464C20.9 18.276 24.316 19.228 24.316 23.176C24.316 26.956 21.376 28.944 17.904 29.308V31.324H16.392V29.336ZM17.904 26.312C19.724 25.948 20.788 24.856 20.788 23.428C20.788 22.28 20.116 21.524 17.904 20.852V26.312ZM13.872 14.468C13.872 16.148 14.964 16.428 16.392 17.044V11.92C14.824 12.2 13.872 13.264 13.872 14.468ZM34.0823 8.84C37.9183 8.84 40.4943 10.884 40.4943 14.468C40.4943 16.54 39.6263 18.276 37.4703 20.264L31.3103 25.976H40.4943V29H27.2223V25.444L34.9223 17.996C36.5743 16.4 36.9663 15.588 36.9663 14.636C36.9663 13.012 35.6503 12.032 34.0823 12.032C32.4583 12.032 31.2543 13.096 31.0303 14.72L27.5023 14.44C27.8663 10.772 30.4423 8.84 34.0823 8.84ZM50.4286 8.84C54.6006 8.84 57.4846 11.416 57.4846 15.588C57.4846 17.324 57.0366 18.808 55.6086 21.076L50.5686 29H46.4806L51.2406 21.664L51.1846 21.608C50.7926 21.832 50.0086 21.944 49.3366 21.944C45.9486 21.944 43.3726 19.144 43.3726 15.616C43.3726 11.528 46.3406 8.84 50.4286 8.84ZM46.7326 15.644C46.7326 17.688 48.3846 19.256 50.3446 19.256C52.3046 19.256 53.9566 17.688 53.9566 15.644C53.9566 13.628 52.3606 12.032 50.3166 12.032C48.4126 12.032 46.7326 13.628 46.7326 15.644ZM69.5749 9.176V29H66.2149V13.04L62.4909 16.484L60.5309 14.16L66.5229 9.176H69.5749Z" fill="#1E1E1E"/>
<rect x="84" width="280" height="38" rx="19" fill="#E1F9ED"/>
<path d="M101.58 26V11.84H110.96V14.12H104.1V17.6H110.6V19.88H104.1V23.72H111.32V26H101.58ZM116.867 16.16C118.367 16.16 119.607 16.68 120.307 17.62L118.707 19.06C118.227 18.4 117.627 18.08 116.827 18.08C116.047 18.08 115.427 18.48 115.427 19.1C115.427 19.88 116.507 20.02 117.707 20.3C119.187 20.64 120.607 21.18 120.607 23.16C120.607 25.18 118.827 26.24 116.447 26.24C114.967 26.24 113.707 25.86 112.727 24.76L114.327 23.26C115.147 24.16 115.787 24.44 116.607 24.44C117.487 24.44 118.207 24 118.207 23.34C118.207 22.42 117.047 22.26 115.827 21.98C114.527 21.68 113.027 21.22 113.027 19.26C113.027 16.92 115.227 16.16 116.867 16.16ZM123.333 18.44H121.353V16.4H123.333V13.62H125.733V16.4H128.373V18.44H125.733V22.7C125.733 23.72 126.133 24.2 127.073 24.2C127.673 24.2 128.173 24.06 128.373 23.9V25.92C127.913 26.14 127.013 26.24 126.473 26.24C124.213 26.24 123.333 25.36 123.333 22.94V18.44ZM131.467 11.7C132.347 11.7 133.027 12.32 133.027 13.14C133.027 14 132.327 14.58 131.467 14.58C130.607 14.58 129.947 13.92 129.947 13.14C129.947 12.36 130.607 11.7 131.467 11.7ZM132.687 16.4V26H130.287V16.4H132.687ZM137.742 26H135.342V16.4H137.622V17.9H137.662C138.182 16.82 139.202 16.16 140.602 16.16C142.082 16.16 143.102 16.74 143.602 17.94C144.302 16.72 145.322 16.16 146.762 16.16C149.122 16.16 150.222 17.7 150.222 20.34V26H147.822V20.5C147.822 19.08 147.242 18.32 146.042 18.32C144.782 18.32 143.982 19.24 143.982 20.8V26H141.582V20.22C141.582 19.26 141.202 18.32 139.942 18.32C138.462 18.32 137.742 19.38 137.742 20.76V26ZM155.704 26.24C153.724 26.24 152.204 25.12 152.204 23.36C152.204 21.14 153.984 20.02 158.104 20.02H158.844V19.74C158.844 18.62 157.964 17.96 156.644 17.96C155.644 17.96 154.744 18.36 154.084 18.96L152.824 17.7C153.684 16.82 155.024 16.16 156.904 16.16C160.184 16.16 161.004 18 161.004 20.26V26H158.844V24.68H158.784C158.104 25.76 156.984 26.24 155.704 26.24ZM158.004 21.7C155.884 21.7 154.604 22.16 154.604 23.18C154.604 24 155.404 24.44 156.304 24.44C157.944 24.44 158.704 23.52 158.704 22.3V21.7H158.004ZM164.447 18.44H162.467V16.4H164.447V13.62H166.847V16.4H169.487V18.44H166.847V22.7C166.847 23.72 167.247 24.2 168.187 24.2C168.787 24.2 169.287 24.06 169.487 23.9V25.92C169.027 26.14 168.127 26.24 167.587 26.24C165.327 26.24 164.447 25.36 164.447 22.94V18.44ZM176.1 16.16C179.14 16.16 180.6 18.46 180.6 21.36V22.04H173.28C173.44 23.42 174.48 24.32 175.86 24.32C176.94 24.32 177.76 23.86 178.44 23.02L180.16 24.32C179.12 25.6 177.74 26.24 176.1 26.24C173.16 26.24 170.88 24.2 170.88 21.2C170.88 18.22 173.16 16.16 176.1 16.16ZM173.28 20.24H178.2C178.18 18.74 177.16 17.96 175.74 17.96C174.32 17.96 173.46 18.88 173.28 20.24ZM190.324 10.88H192.724V26H190.444V24.56H190.404C189.684 25.74 188.424 26.24 187.084 26.24C184.164 26.24 182.364 24.08 182.364 21.2C182.364 18.48 184.164 16.16 187.004 16.16C188.284 16.16 189.444 16.6 190.264 17.62H190.324V10.88ZM184.764 21.2C184.764 22.8 185.904 24.08 187.584 24.08C189.504 24.08 190.404 22.52 190.404 21.2C190.404 19.46 189.104 18.32 187.584 18.32C185.904 18.32 184.764 19.62 184.764 21.2ZM205.68 11.6C208.32 11.6 210.22 13.04 210.22 15.38C210.22 16.96 209.28 18.18 207.8 18.58V18.62C209.48 18.84 210.56 20.2 210.56 22.06C210.56 24.62 208.48 26.24 205.78 26.24C203.18 26.24 201.48 25.04 200.92 22.92L203.48 22.24C203.78 23.42 204.5 24.08 205.78 24.08C207.08 24.08 208.16 23.18 208.16 21.86C208.16 20.5 207.32 19.7 204.94 19.7H204.44V17.54H204.84C206.18 17.54 207.82 17.5 207.82 15.62C207.82 14.5 206.96 13.76 205.8 13.76C204.86 13.76 204.04 14.32 203.68 15.32L201.14 14.64C201.7 12.7 203.44 11.6 205.68 11.6ZM217.756 11.6C220.976 11.6 222.876 14.08 222.876 18.92C222.876 23.74 220.996 26.24 217.756 26.24C214.516 26.24 212.636 23.74 212.636 18.92C212.636 14.08 214.536 11.6 217.756 11.6ZM215.036 18.92C215.036 21.96 215.916 23.96 217.756 23.96C219.556 23.96 220.476 22.06 220.476 18.92C220.476 15.74 219.556 13.88 217.736 13.88C215.996 13.88 215.036 15.72 215.036 18.92ZM232.47 11.84L235.95 17.48L239.47 11.84H242.47L237.15 19.94V26H234.63V19.94L229.31 11.84H232.47ZM246.452 16.16C249.492 16.16 250.952 18.46 250.952 21.36V22.04H243.632C243.792 23.42 244.832 24.32 246.212 24.32C247.292 24.32 248.112 23.86 248.792 23.02L250.512 24.32C249.472 25.6 248.092 26.24 246.452 26.24C243.512 26.24 241.232 24.2 241.232 21.2C241.232 18.22 243.512 16.16 246.452 16.16ZM243.632 20.24H248.552C248.532 18.74 247.512 17.96 246.092 17.96C244.672 17.96 243.812 18.88 243.632 20.24ZM256.056 26.24C254.076 26.24 252.556 25.12 252.556 23.36C252.556 21.14 254.336 20.02 258.456 20.02H259.196V19.74C259.196 18.62 258.316 17.96 256.996 17.96C255.996 17.96 255.096 18.36 254.436 18.96L253.176 17.7C254.036 16.82 255.376 16.16 257.256 16.16C260.536 16.16 261.356 18 261.356 20.26V26H259.196V24.68H259.136C258.456 25.76 257.336 26.24 256.056 26.24ZM258.356 21.7C256.236 21.7 254.956 22.16 254.956 23.18C254.956 24 255.756 24.44 256.656 24.44C258.296 24.44 259.056 23.52 259.056 22.3V21.7H258.356ZM263.938 26V16.4H266.338V17.92H266.378C266.898 16.82 267.958 16.16 269.218 16.16C269.578 16.16 269.758 16.22 270.078 16.3V18.62C269.618 18.5 269.278 18.44 268.918 18.44C267.098 18.44 266.338 19.72 266.338 21V26H263.938ZM274.992 16.16C276.492 16.16 277.732 16.68 278.432 17.62L276.832 19.06C276.352 18.4 275.752 18.08 274.952 18.08C274.172 18.08 273.552 18.48 273.552 19.1C273.552 19.88 274.632 20.02 275.832 20.3C277.312 20.64 278.732 21.18 278.732 23.16C278.732 25.18 276.952 26.24 274.572 26.24C273.092 26.24 271.832 25.86 270.852 24.76L272.452 23.26C273.272 24.16 273.912 24.44 274.732 24.44C275.612 24.44 276.332 24 276.332 23.34C276.332 22.42 275.172 22.26 273.952 21.98C272.652 21.68 271.152 21.22 271.152 19.26C271.152 16.92 273.352 16.16 274.992 16.16ZM291.456 11.48C293.076 11.48 294.516 12 295.516 12.94L293.676 14.88C293.116 14.1 292.176 13.76 291.196 13.76C289.776 13.76 288.876 14.48 288.876 15.58C288.876 16.54 289.676 17.06 291.076 17.5C293.336 18.2 295.596 18.92 295.596 21.84C295.596 24.76 293.296 26.36 290.516 26.36C288.516 26.36 286.876 25.76 285.776 24.44L287.676 22.6C288.296 23.54 289.336 24.08 290.476 24.08C291.836 24.08 292.956 23.28 292.956 22.14C292.956 21.08 292.236 20.52 290.416 19.96C287.876 19.18 286.236 18.32 286.236 15.76C286.236 13.2 288.376 11.48 291.456 11.48ZM300.861 26.24C298.881 26.24 297.361 25.12 297.361 23.36C297.361 21.14 299.141 20.02 303.261 20.02H304.001V19.74C304.001 18.62 303.121 17.96 301.801 17.96C300.801 17.96 299.901 18.36 299.241 18.96L297.981 17.7C298.841 16.82 300.181 16.16 302.061 16.16C305.341 16.16 306.161 18 306.161 20.26V26H304.001V24.68H303.941C303.261 25.76 302.141 26.24 300.861 26.24ZM303.161 21.7C301.041 21.7 299.761 22.16 299.761 23.18C299.761 24 300.561 24.44 301.461 24.44C303.101 24.44 303.861 23.52 303.861 22.3V21.7H303.161ZM307.443 16.4H310.063L312.623 23.12H312.663L315.243 16.4H317.703L313.923 26H311.363L307.443 16.4ZM320.334 11.7C321.214 11.7 321.894 12.32 321.894 13.14C321.894 14 321.194 14.58 320.334 14.58C319.474 14.58 318.814 13.92 318.814 13.14C318.814 12.36 319.474 11.7 320.334 11.7ZM321.554 16.4V26H319.154V16.4H321.554ZM326.709 26H324.309V16.4H326.589V17.94H326.629C327.209 16.68 328.309 16.16 329.569 16.16C332.429 16.16 333.069 18.38 333.069 19.86V26H330.669V21.02C330.669 19.1 330.049 18.32 328.909 18.32C327.369 18.32 326.709 19.44 326.709 20.72V26ZM340.034 16.16C341.374 16.16 342.634 16.66 343.354 17.84H343.394V16.4H345.674V25.22C345.674 28.68 343.874 30.8 340.254 30.8C338.454 30.8 336.834 30.4 335.494 29.22L336.934 27.26C337.894 28.14 338.914 28.64 340.234 28.64C342.474 28.64 343.274 27.48 343.274 25.34V24.72H343.234C342.494 25.66 341.334 26.12 340.094 26.12C337.274 26.12 335.314 23.98 335.314 21.2C335.314 18.32 337.114 16.16 340.034 16.16ZM337.714 21.18C337.714 22.78 338.994 23.96 340.534 23.96C342.214 23.96 343.394 22.82 343.394 21.14C343.394 19.38 342.234 18.32 340.534 18.32C338.874 18.32 337.714 19.48 337.714 21.18Z" fill="#02CF6D"/>
<defs>
<linearGradient id="paint0_linear_247_850" x1="377" y1="-78" x2="377" y2="427" gradientUnits="userSpaceOnUse">
<stop stop-color="#3550E1"/>
<stop offset="1" stop-color="#3550E1" stop-opacity="0"/>
</linearGradient>
</defs>
</svg>
