<svg width="65" height="64" viewBox="0 0 65 64" fill="none" xmlns="http://www.w3.org/2000/svg">
<path d="M5.5 34L33.9394 6L61.1022 33.2755" stroke="#00266F" stroke-width="2" stroke-linejoin="round"/>
<path d="M34.8357 48.1831C39.8568 48.1831 43.9273 44.1127 43.9273 39.0916C43.9273 34.0704 39.8568 30 34.8357 30C29.8146 30 25.7441 34.0704 25.7441 39.0916C25.7441 44.1127 29.8146 48.1831 34.8357 48.1831Z" stroke="#14CE7B" stroke-width="2" stroke-linejoin="round"/>
<path d="M34.8349 20L41.8365 23.4194C44.6153 24.7652 47.6639 25.4612 50.7514 25.4547H53.3159V39.5089C52.9394 50.5812 45.0422 59.1602 34.8349 59.1602C24.6276 59.1602 16.3438 50.3675 16.3438 39.5089V25.4344H18.7862C21.8325 25.4225 24.8372 24.7269 27.5789 23.399L34.8349 20Z" stroke="#00266F" stroke-width="2" stroke-linejoin="round"/>
<path d="M31.5 38L34.01 41.1574L38.5 36" stroke="#14CE7B" stroke-width="2" stroke-linejoin="round"/>
</svg>
