<svg width="72" height="72" viewBox="0 0 72 72" fill="none" xmlns="http://www.w3.org/2000/svg">
<path d="M23.6914 34.7114H29.2299" stroke="#D61327" stroke-width="2.07692" stroke-linecap="round"/>
<path d="M42.1659 34.7109H47.8324" stroke="#02CF6D" stroke-width="2.07692" stroke-linecap="round"/>
<path d="M45 37.4805L45 31.942" stroke="#02CF6D" stroke-width="2.07692" stroke-linecap="round"/>
<path d="M19.8086 18.0661V15.5912C19.8086 15.3922 19.9699 15.231 20.1688 15.231H27.1063C27.3053 15.231 27.4665 15.3922 27.4665 15.5912V18.0661" stroke="#1E1E1E" stroke-width="2.07692"/>
<path d="M43.8262 18.0661V15.5912C43.8262 15.3922 43.9874 15.231 44.1864 15.231H51.1239C51.3228 15.231 51.4841 15.3922 51.4841 15.5912V18.0661" stroke="#1E1E1E" stroke-width="2.07692"/>
<path d="M45.9169 25.1025H15.6454C15.4464 25.1025 15.2852 24.9412 15.2852 24.7423V20.4727C15.2852 20.2738 15.4464 20.1125 15.6454 20.1125H56.4634C56.6624 20.1125 56.8236 20.2738 56.8236 20.4727V24.7423C56.8236 24.9412 56.6624 25.1025 56.4634 25.1025H49.8619" stroke="#1E1E1E" stroke-width="2.07692"/>
<path d="M45.9169 52.6151L15.6454 52.6151C15.4464 52.6151 15.2852 52.7763 15.2852 52.9753L15.2852 57.2448C15.2852 57.4437 15.4464 57.605 15.6454 57.605L56.4634 57.605C56.6624 57.605 56.8236 57.4437 56.8236 57.2448L56.8236 52.9753C56.8236 52.7763 56.6624 52.6151 56.4634 52.6151L49.8619 52.6151" stroke="#1E1E1E" stroke-width="2.07692"/>
<path d="M16.6698 24.9233V52.6156" stroke="#1E1E1E" stroke-width="2.07692"/>
<path d="M55.4355 24.9233V52.6156" stroke="#1E1E1E" stroke-width="2.07692"/>
</svg>
