<svg width="65" height="64" viewBox="0 0 65 64" fill="none" xmlns="http://www.w3.org/2000/svg">
<path d="M49.8438 56.7666C50.1807 56.5201 50.5011 56.2614 50.8052 55.9902" stroke="#00266F" stroke-width="2" stroke-linejoin="round"/>
<path d="M52.6526 54.3142C56.7788 50.2252 59.5857 44.9949 60.7112 39.2958C61.8367 33.5968 61.2294 27.6902 58.9674 22.3395C56.7055 16.9889 52.8926 12.4396 48.0205 9.27595C43.1484 6.11235 37.4403 4.48061 31.6322 4.59121C25.8241 4.70181 20.1823 6.54906 15.4341 9.89585C10.686 13.2426 7.04915 17.9346 4.99254 23.3675C2.93593 28.8004 2.55383 34.7247 3.89551 40.3767C5.23719 46.0288 8.24112 51.1496 12.52 55.0786" stroke="#00266F" stroke-width="2" stroke-linejoin="round"/>
<path d="M13.4531 55.9043C13.7654 56.1755 14.0858 56.4354 14.4145 56.6819" stroke="#00266F" stroke-width="2" stroke-linejoin="round"/>
<path d="M22.6641 38.3281C22.8366 45.9536 26.0167 49.7667 32.2042 49.7667C38.3917 49.7667 41.5717 45.9536 41.7443 38.3281" stroke="#00266F" stroke-width="2" stroke-linejoin="round"/>
<path d="M16.9453 44.0469C18.219 51.6724 23.3054 55.4843 32.2046 55.4843C41.1037 55.4843 46.1902 51.6724 47.4638 44.0469" stroke="#00266F" stroke-width="2" stroke-linejoin="round"/>
<path d="M22.6641 30.6987C22.8366 23.0732 26.0167 19.2563 32.2042 19.2481C38.3917 19.2398 41.5717 23.0568 41.7443 30.6987" stroke="#00266F" stroke-width="2" stroke-linejoin="round"/>
<path d="M32.1883 55.4844V61.2035H20.75H43.6389" stroke="#00266F" stroke-width="2" stroke-linejoin="round"/>
<path d="M11.2109 19.248L53.18 61.2048" stroke="#14CE7B" stroke-width="2" stroke-linejoin="round"/>
</svg>
