<svg width="47" height="26" viewBox="0 0 47 26" fill="none" xmlns="http://www.w3.org/2000/svg">
<rect width="47" height="26" rx="5" fill="#00266F"/>
<path d="M11.274 8.088H14.76C15.3947 8.088 15.9173 8.17667 16.328 8.354C16.7387 8.522 17.0607 8.74133 17.294 9.012C17.5367 9.27333 17.7047 9.572 17.798 9.908C17.8913 10.2347 17.938 10.552 17.938 10.86C17.938 11.168 17.8913 11.49 17.798 11.826C17.7047 12.1527 17.5367 12.4513 17.294 12.722C17.0607 12.9833 16.7387 13.2027 16.328 13.38C15.9173 13.548 15.3947 13.632 14.76 13.632H12.618V18H11.274V8.088ZM12.618 12.456H14.382C14.6433 12.456 14.9 12.4373 15.152 12.4C15.4133 12.3533 15.642 12.274 15.838 12.162C16.0433 12.05 16.2067 11.8913 16.328 11.686C16.4493 11.4713 16.51 11.196 16.51 10.86C16.51 10.524 16.4493 10.2533 16.328 10.048C16.2067 9.83333 16.0433 9.67 15.838 9.558C15.642 9.446 15.4133 9.37133 15.152 9.334C14.9 9.28733 14.6433 9.264 14.382 9.264H12.618V12.456ZM19.3488 8.088H22.8068C23.5068 8.088 24.1182 8.16733 24.6408 8.326C25.1728 8.48467 25.6302 8.69933 26.0128 8.97C26.4048 9.23133 26.7268 9.53467 26.9788 9.88C27.2402 10.2253 27.4455 10.58 27.5948 10.944C27.7442 11.308 27.8515 11.672 27.9168 12.036C27.9822 12.4 28.0148 12.736 28.0148 13.044C28.0148 13.6787 27.8982 14.2947 27.6648 14.892C27.4315 15.48 27.0862 16.0073 26.6288 16.474C26.1715 16.9313 25.6022 17.3 24.9208 17.58C24.2488 17.86 23.4695 18 22.5828 18H19.3488V8.088ZM20.6928 16.74H22.3868C22.9562 16.74 23.4928 16.6653 23.9968 16.516C24.5102 16.3573 24.9582 16.124 25.3408 15.816C25.7235 15.508 26.0268 15.1253 26.2508 14.668C26.4748 14.2013 26.5868 13.66 26.5868 13.044C26.5868 12.7267 26.5355 12.358 26.4328 11.938C26.3302 11.5087 26.1342 11.1027 25.8448 10.72C25.5648 10.3373 25.1728 10.0153 24.6688 9.754C24.1648 9.48333 23.5115 9.348 22.7088 9.348H20.6928V16.74ZM29.9498 8.088H36.1798V9.348H31.2938V12.456H35.8438V13.716H31.2938V18H29.9498V8.088Z" fill="white"/>
</svg>
