<svg width="72" height="72" viewBox="0 0 72 72" fill="none" xmlns="http://www.w3.org/2000/svg">
<path d="M42.5014 19.7367C44.4172 16.8126 47.2731 14.4004 50.7689 14.4004V14.4004V14.4004C53.8273 14.4004 56.2127 16.5923 57.8778 19.1577C59.0648 20.9865 60.3554 23.1664 61.0586 24.9604C62.5843 28.8523 62.7446 30.7377 62.9742 34.6383V34.6383C63.2673 39.6195 58.5891 43.2005 53.5992 43.2005H46.3616C41.6336 43.2005 37.8008 39.3677 37.8008 34.6397V34.6397C37.8008 34.6388 37.8008 34.6391 37.8008 34.6382C37.8008 34.6083 37.8009 28.7914 39.3264 25.2977C40.0551 23.6289 41.3091 21.5565 42.5014 19.7367Z" stroke="#1E1E1E" stroke-width="2"/>
<path d="M57.3805 7.15035L56.9382 7.15035C56.2437 7.15035 55.6287 6.73185 55.1841 6.19816C54.9512 5.91852 54.6634 5.65132 54.3402 5.51535C53.6071 5.20699 52.6752 5.56665 51.9019 6.02632C51.0215 6.54964 49.8401 6.47908 48.9579 5.95862C48.407 5.63353 47.7576 5.39876 47.1202 5.51535C46.5137 5.62631 46.0081 5.99596 45.6431 6.35577C45.191 6.80139 44.6121 7.15035 43.9773 7.15035L43.4217 7.15035C41.8994 7.15035 41.0644 8.9226 42.0337 10.0965L43.5611 11.9464C43.9031 12.3605 44.4121 12.6003 44.9492 12.6003L55.8531 12.6003C56.3902 12.6003 56.8992 12.3605 57.2411 11.9464L58.7686 10.0965C59.7378 8.9226 58.9029 7.15035 57.3805 7.15035Z" stroke="#1E1E1E" stroke-width="2"/>
<rect x="43.2012" y="12.6003" width="14.4" height="3.60001" rx="1.80001" fill="white" stroke="#D61327" stroke-width="2"/>
<path d="M50.1773 35.595C48.5411 35.595 47.326 35.109 46.4026 34.1532L47.8768 32.6466C48.3953 33.3756 49.2863 33.7644 50.1773 33.8454V30.4271C47.9578 29.8601 46.678 29.0177 46.678 27.0898C46.678 25.3726 48.0712 23.9793 50.1773 23.7525V22.6671H51.0521V23.7363H51.1493C52.3968 23.7363 53.5794 24.1575 54.3732 24.8541L53.0286 26.3608C52.494 25.7938 51.7812 25.486 51.0521 25.486V28.7261C52.7856 29.1959 54.762 29.7467 54.762 32.0309C54.762 34.218 53.061 35.3682 51.0521 35.5788V36.7453H50.1773V35.595ZM51.0521 33.8454C52.1052 33.6348 52.7208 33.003 52.7208 32.1767C52.7208 31.5125 52.332 31.0751 51.0521 30.6863V33.8454ZM48.7193 26.9926C48.7193 27.9646 49.3511 28.1266 50.1773 28.483V25.5184C49.2701 25.6804 48.7193 26.296 48.7193 26.9926Z" fill="#14CE7B"/>
<path d="M16.2012 60.6664C16.2012 60.6664 18.2545 59.3334 20.0707 59.3334C26.5199 59.3334 28.206 64.0074 34.259 64.6659C36.2628 64.8839 37.4081 64.806 39.4184 64.6659C48.0064 64.0676 60.0559 56.6676 60.0559 56.6676C60.0559 56.6676 62.6356 54.0018 60.0559 54.0015C58.1755 54.0012 50.1273 55.4179 45.902 56.186" stroke="#1E1E1E" stroke-width="2" stroke-linecap="round"/>
<path d="M10.8008 43.2012H14.4008C15.3949 43.2012 16.2008 44.0071 16.2008 45.0012V61.2012C16.2008 62.1953 15.3949 63.0012 14.4008 63.0012H10.8008V43.2012Z" stroke="#1E1E1E" stroke-width="2" stroke-linejoin="round"/>
<path d="M16.2012 45.9626C16.2012 45.9626 20.9192 43.4907 24.3012 43.2358C25.3707 43.1552 26.1012 43.2359 27.1879 43.2716C28.2745 43.3073 40.1818 48.8395 40.9213 49.9992C41.6607 51.159 41.4534 51.7779 40.9213 52.6903C40.3263 53.7105 39.5479 54.0361 38.1746 54.0359C36.8012 54.0356 29.9345 51.3448 29.9345 51.3448" stroke="#1E1E1E" stroke-width="2" stroke-linecap="round"/>
</svg>
