<svg width="64" height="64" viewBox="0 0 64 64" fill="none" xmlns="http://www.w3.org/2000/svg">
<rect x="13.8984" y="43.6411" width="36.227" height="5.17529" rx="0.405631" stroke="#1E1E1E" stroke-width="2"/>
<path d="M16.243 43.3453L11.4634 26.9056C11.3879 26.6461 11.5826 26.3867 11.8529 26.3867H52.1685C52.4406 26.3867 52.6355 26.6492 52.5568 26.9097L47.5898 43.3494C47.538 43.5206 47.3803 43.6377 47.2015 43.6377H16.6325C16.4521 43.6377 16.2933 43.5185 16.243 43.3453Z" stroke="#1E1E1E" stroke-width="2"/>
<path d="M27.959 47.8604C27.959 50.7744 25.5967 53.1367 22.6826 53.1367C19.7686 53.1367 17.4062 50.7744 17.4062 47.8604C17.4062 44.9463 19.7686 42.584 22.6826 42.584C25.5967 42.584 27.959 44.9463 27.959 47.8604Z" fill="white" stroke="#14CE7B" stroke-width="2"/>
<path d="M23.9015 47.8609C23.9015 48.6076 23.2961 49.213 22.5494 49.213C21.8026 49.213 21.1973 48.6076 21.1973 47.8609C21.1973 47.1141 21.8026 46.5088 22.5494 46.5088C23.2961 46.5088 23.9015 47.1141 23.9015 47.8609Z" fill="#1E1E1E"/>
<circle cx="41.3936" cy="47.8555" r="5.27637" fill="white" stroke="#14CE7B" stroke-width="2"/>
<path d="M42.8294 47.8604C42.8294 48.6071 42.224 49.2125 41.4773 49.2125C40.7305 49.2125 40.1252 48.6071 40.1252 47.8604C40.1252 47.1137 40.7305 46.5083 41.4773 46.5083C42.224 46.5083 42.8294 47.1137 42.8294 47.8604Z" fill="#1E1E1E"/>
<path d="M42.8057 19.488C42.2828 19.488 42.9628 17.6564 43.4244 16.6084C43.4677 16.5101 43.5489 16.4345 43.6495 16.3965L46.7301 15.2331M42.8057 19.488C43.3265 19.488 49.0006 19.488 52.2088 19.488C52.469 19.488 52.6601 19.2465 52.6026 18.9928L52.0498 16.552C52.0355 16.4888 52.0062 16.4299 51.9644 16.3803L50.1527 14.2299C50.0419 14.0984 49.8601 14.051 49.6992 14.1118L46.7301 15.2331M42.8057 19.488H38.9562C38.8457 19.488 38.74 19.443 38.6635 19.3632L36.7377 17.356C36.6653 17.2805 36.6248 17.1798 36.6248 17.0752V14.0104M46.7301 15.2331L44.6636 12.0022C44.6048 11.9103 44.5115 11.8459 44.4047 11.8236L40.542 11.0176C40.4224 10.9926 40.2979 11.0229 40.2032 11.1L36.6248 14.0104M36.6248 14.0104L32.406 10.2614C32.2421 10.1158 31.9921 10.1268 31.8416 10.2862L28.9722 13.3257M28.9722 13.3257L31.1174 17.0451C31.1867 17.1654 31.1898 17.3128 31.1254 17.4359L30.1653 19.2705C30.0953 19.4042 29.9568 19.488 29.8059 19.488H22.4563C22.1837 19.488 21.9888 19.2246 22.0683 18.964L22.5617 17.3476C22.5836 17.2761 22.6247 17.2121 22.6807 17.1625L25.2441 14.8907M28.9722 13.3257L25.2441 14.8907M25.2441 14.8907L20.6351 11.9231C20.5696 11.8809 20.4934 11.8585 20.4155 11.8585H16.6599C16.5646 11.8585 16.4723 11.8921 16.3992 11.9534L12.4898 15.2331M12.4898 15.2331L11.4547 18.9742C11.3832 19.2326 11.5775 19.488 11.8456 19.488H18.6964C19.0206 19.488 19.2138 19.1265 19.0336 18.8569L17.1995 16.114C17.1367 16.0201 17.0376 15.9566 16.926 15.9389L12.4898 15.2331Z" stroke="#1E1E1E" stroke-width="2"/>
<rect x="7" y="19.4897" width="50.0278" height="6.90038" rx="3.45019" stroke="#D61327" stroke-width="2" stroke-linecap="round"/>
</svg>
