<svg width="72" height="72" viewBox="0 0 72 72" fill="none" xmlns="http://www.w3.org/2000/svg">
<path d="M10 33.6148L54.7364 33.6148M10 33.6148L21.6771 28.2442C21.7401 28.2152 21.8087 28.2002 21.878 28.2002L61.8 28.2002M10 33.6148L10 64.7192C10 64.9848 10.2154 65.2002 10.481 65.2002L54.7364 65.2002M54.7364 33.6148L61.8 28.2002M54.7364 33.6148L54.7364 65.2002M61.8 28.2002L61.8 59.5482C61.8 59.6978 61.7304 59.8389 61.6116 59.93L54.7364 65.2002" stroke="#1E1E1E" stroke-width="2" stroke-linejoin="round"/>
<circle cx="37.7508" cy="18.95" r="12.95" fill="white"/>
<circle cx="37.75" cy="18.9502" r="9.25" stroke="#1E1E1E" stroke-width="2"/>
<path d="M37.9943 14.6579H38.0942C38.4716 14.6579 38.8564 14.7245 39.2486 14.8577C39.6482 14.9835 39.9886 15.1722 40.2698 15.4238L39.3485 16.4561C39.1783 16.2711 38.9748 16.1268 38.738 16.0232C38.5012 15.9122 38.2533 15.8567 37.9943 15.8567V18.0767L38.0387 18.0878C38.3495 18.1692 38.6529 18.2617 38.9489 18.3653C39.2523 18.4689 39.5187 18.6058 39.7481 18.776C39.9849 18.9388 40.1736 19.146 40.3142 19.3976C40.4622 19.6492 40.5362 19.9637 40.5362 20.3411C40.5362 20.7111 40.4696 21.0404 40.3364 21.329C40.2032 21.6102 40.0219 21.8544 39.7925 22.0616C39.5631 22.2614 39.293 22.4205 38.9822 22.5389C38.6788 22.6573 38.3495 22.735 37.9943 22.772V23.5712H37.3949V22.7831C36.9065 22.7905 36.4366 22.7165 35.9852 22.5611C35.5412 22.4057 35.149 22.1504 34.8086 21.7952L35.8187 20.7629C35.9963 21.0145 36.2257 21.2069 36.5069 21.3401C36.7881 21.4733 37.0841 21.5547 37.3949 21.5843V19.2422L37.3394 19.2311C37.0286 19.1423 36.7326 19.0461 36.4514 18.9425C36.1702 18.8315 35.9186 18.6909 35.6966 18.5207C35.482 18.3431 35.3118 18.1322 35.186 17.888C35.0602 17.6364 34.9973 17.3256 34.9973 16.9556C34.9973 16.6226 35.0639 16.3229 35.1971 16.0565C35.3303 15.7901 35.5079 15.5607 35.7299 15.3683C35.9519 15.1685 36.2072 15.0094 36.4958 14.891C36.7844 14.7726 37.0841 14.6986 37.3949 14.669V13.9253H37.9943V14.6579ZM37.3949 15.8789C37.1359 15.9233 36.9028 16.0343 36.6956 16.2119C36.4958 16.3821 36.3959 16.6078 36.3959 16.889C36.3959 17.0592 36.4218 17.1961 36.4736 17.2997C36.5328 17.4033 36.6068 17.4921 36.6956 17.5661C36.7844 17.6401 36.888 17.703 37.0064 17.7548C37.1322 17.7992 37.2617 17.851 37.3949 17.9102V15.8789ZM37.9943 21.5843C38.1497 21.5547 38.294 21.5103 38.4272 21.4511C38.5678 21.3845 38.6899 21.3068 38.7935 21.218C38.8971 21.1218 38.9785 21.0108 39.0377 20.885C39.1043 20.7518 39.1376 20.6038 39.1376 20.441C39.1376 20.2782 39.1006 20.1413 39.0266 20.0303C38.96 19.9193 38.8712 19.8268 38.7602 19.7528C38.6492 19.6788 38.5271 19.6159 38.3939 19.5641C38.2607 19.5123 38.1275 19.4642 37.9943 19.4198V21.5843Z" fill="#D61327"/>
<path d="M19.25 42.1501C19.8023 42.1501 20.25 41.7024 20.25 41.1501C20.25 40.5979 19.8023 40.1501 19.25 40.1501V42.1501ZM10 42.1501H19.25V40.1501H10V42.1501Z" fill="#1E1E1E"/>
<path d="M37.2266 54.1133L33.3021 58.0377L29.3777 54.1133" stroke="#02CF6D" stroke-width="2" stroke-linecap="round" stroke-linejoin="round"/>
<path d="M33.3342 43.8595L33.3343 56.9409" stroke="#02CF6D" stroke-width="2" stroke-linecap="round" stroke-linejoin="round"/>
</svg>
