<svg width="64" height="64" viewBox="0 0 64 64" fill="none" xmlns="http://www.w3.org/2000/svg">
<path d="M31.1196 52.2348V37.2305M31.1196 37.2305C31.1196 37.2305 30.1517 35.8362 29.4502 35.0076C28.4591 33.8368 26.6738 32.229 26.6738 32.229M31.1196 37.2305C31.1196 37.2305 32.0842 35.8357 32.7846 35.0076C33.7759 33.8354 35.5653 32.229 35.5653 32.229" stroke="#D61327" stroke-width="2" stroke-linecap="round" stroke-linejoin="round"/>
<path d="M16.6699 35.7026V35.7026C21.7772 34.4967 26.6728 38.3711 26.6728 43.6188V52.2352H20.2004" stroke="#1E1E1E" stroke-width="2" stroke-linecap="round"/>
<path d="M46.6816 35.7021V35.7021C40.9577 34.4858 35.5673 38.8511 35.5673 44.7029V52.2347H42.7589" stroke="#1E1E1E" stroke-width="2" stroke-linecap="round"/>
<path d="M24.1658 37.7863C22.7598 39.8019 20.424 41.1206 17.7802 41.1206C13.4834 41.1206 10.0002 37.6374 10.0002 33.3406C10.0002 29.0438 13.4834 25.5605 17.7802 25.5605C20.1726 25.5605 22.3127 26.6403 23.7399 28.3391" stroke="#1E1E1E" stroke-width="2" stroke-linecap="round"/>
<path d="M38.4947 28.3391C39.9218 26.6403 42.062 25.5605 44.4543 25.5605C48.7511 25.5605 52.2344 29.0438 52.2344 33.3406C52.2344 37.6374 48.7511 41.1206 44.4543 41.1206C42.062 41.1206 39.9218 40.0409 38.4947 38.3421" stroke="#1E1E1E" stroke-width="2" stroke-linecap="round"/>
<path d="M23.8926 28.3832C23.0297 28.7133 22.093 28.8941 21.114 28.8941C16.8172 28.8941 13.334 25.4108 13.334 21.114C13.334 16.8172 16.8172 13.334 21.114 13.334C25.4108 13.334 28.8941 16.8172 28.8941 21.114C28.8941 22.4512 28.5567 23.7096 27.9625 24.8087" stroke="#1E1E1E" stroke-width="2" stroke-linecap="round"/>
<path d="M34.089 24.4488C33.6089 23.4382 33.3403 22.3078 33.3403 21.1145C33.3403 16.8177 36.8235 13.3345 41.1203 13.3345C45.4171 13.3345 48.9004 16.8177 48.9004 21.1145C48.9004 25.4113 45.4171 28.8946 41.1203 28.8946C40.3479 28.8946 39.6018 28.782 38.8975 28.5724" stroke="#14CE7B" stroke-width="2" stroke-linecap="round"/>
<path d="M27.7836 24.8114C25.1551 23.5627 23.3378 20.8836 23.3378 17.78C23.3378 13.4832 26.8211 10 31.1179 10C35.4147 10 38.8979 13.4832 38.8979 17.78C38.8979 20.8836 37.0807 23.5627 34.4522 24.8114" stroke="#1E1E1E" stroke-width="2" stroke-linecap="round"/>
</svg>
