<svg width="72" height="72" viewBox="0 0 72 72" fill="none" xmlns="http://www.w3.org/2000/svg">
<path d="M38.9743 49.9019V54.9944C38.9743 55.179 39.124 55.3287 39.3086 55.3287H42.5775C42.7622 55.3287 42.9118 55.4784 42.9118 55.663V59.5319C42.9118 59.7166 42.7622 59.8662 42.5775 59.8662H27.5764C27.3917 59.8662 27.2421 59.7166 27.2421 59.5319V55.663C27.2421 55.4784 27.3917 55.3287 27.5764 55.3287H30.8453C31.0299 55.3287 31.1796 55.179 31.1796 54.9944V49.9019" stroke="#1E1E1E" stroke-width="1.92857"/>
<path d="M19.8847 25.6076C19.9342 25.4783 20.0584 25.3928 20.1969 25.3928H49.9571C50.0957 25.3928 50.2199 25.4783 50.2694 25.6076L58.408 46.8767C58.4918 47.0956 58.3302 47.3305 58.0958 47.3305H12.0582C11.8239 47.3305 11.6623 47.0956 11.746 46.8767L19.8847 25.6076Z" stroke="#1E1E1E" stroke-width="1.92857"/>
<path d="M40.8867 25.8843L44.5868 47.5186" stroke="#1E1E1E" stroke-width="1.92857"/>
<path d="M30.0721 25.884L26.3721 47.5183" stroke="#1E1E1E" stroke-width="1.92857"/>
<path d="M15.5547 35.7774L53.8393 35.7773" stroke="#1E1E1E" stroke-width="1.92857"/>
<path d="M42.9609 21.2751C43.4529 16.545 47.4517 12.8572 52.3119 12.8572C57.5044 12.8572 61.7138 17.0665 61.7138 22.259C61.7138 25.3497 60.2225 28.0921 57.9202 29.8058" stroke="#02CF6D" stroke-width="1.92857" stroke-linecap="round"/>
<path d="M50.0157 22.0332C50.1473 20.6338 51.2165 19.5427 52.5161 19.5427C53.9045 19.5427 55.03 20.7881 55.03 22.3243C55.03 23.2387 54.6313 24.05 54.0157 24.557" stroke="#D61327" stroke-width="1.92857" stroke-linecap="round"/>
</svg>
