<svg width="32" height="32" viewBox="0 0 32 32" fill="none" xmlns="http://www.w3.org/2000/svg">
<path d="M7.1409 11.9253C7.18487 11.817 7.29014 11.7461 7.40707 11.7461H21.1049C21.2218 11.7461 21.3271 11.817 21.3711 11.9253L24.7221 20.1823C24.7988 20.3712 24.6598 20.5776 24.4559 20.5776H4.05602C3.85217 20.5776 3.71319 20.3712 3.78984 20.1823L7.1409 11.9253Z" stroke="#1E1E1E" stroke-width="1.5"/>
<path d="M16.6035 11.4657L18.482 20.858" stroke="#1E1E1E" stroke-width="1.5"/>
<path d="M11.9082 11.4658L10.0297 20.8581" stroke="#1E1E1E" stroke-width="1.5"/>
<path d="M5.33398 15.6924L23.1793 15.6924" stroke="#1E1E1E" stroke-width="1.5"/>
<path d="M25.1483 13.042C25.9276 12.7135 26.6039 12.1811 27.1061 11.5008C27.6084 10.8205 27.918 10.0174 28.0024 9.17599C28.0869 8.33458 27.943 7.48597 27.5859 6.71943C27.2288 5.95289 26.6717 5.29675 25.9732 4.82004C25.2748 4.34333 24.4608 4.06367 23.6168 4.01048C22.7728 3.95729 21.9301 4.13252 21.1774 4.51776C20.4246 4.903 19.7895 5.484 19.339 6.19964C18.8885 6.91527 18.6392 7.7391 18.6173 8.58445" stroke="#1E1E1E" stroke-width="1.5" stroke-linecap="round"/>
<path d="M15.6647 22.9326V25.0846C15.6647 25.6575 16.1291 26.1219 16.7019 26.1219H17.9637C18.2502 26.1219 18.4823 26.3541 18.4823 26.6405V27.4817C18.4823 27.7681 18.2502 28.0003 17.9637 28.0003H10.5479C10.2615 28.0003 10.0293 27.7681 10.0293 27.4817V26.6405C10.0293 26.3541 10.2615 26.1219 10.5479 26.1219H11.8097C12.3826 26.1219 12.847 25.6575 12.847 25.0846V22.9326" stroke="#1E1E1E" stroke-width="1.5"/>
</svg>
