<svg width="153" height="55" viewBox="0 0 153 55" fill="none" xmlns="http://www.w3.org/2000/svg">
<path d="M64.7877 38.8613H0V43.6619H64.7877V38.8613Z" fill="#D61327"/>
<path d="M64.7845 30.1284H36.3311V34.929H64.7845V30.1284Z" fill="#D61327"/>
<path d="M64.7845 21.375H36.3311V26.1756H64.7845V21.375Z" fill="#D61327"/>
<path d="M32.0651 35.0597H0.0195312V32.0186V20.2453L15.6722 4.01904L32.0651 20.3757V35.0597Z" fill="#00266F"/>
<path d="M18.8742 13.2295L9.33894 22.8523C9.2954 22.8957 9.2954 22.9826 9.36071 23.0261L9.38248 23.0478L13.5188 24.047C13.5841 24.0687 13.6276 24.1339 13.6059 24.199L10.2533 31.9538C10.2315 32.0189 10.2751 32.0841 10.3404 32.1058C10.3839 32.1276 10.4274 32.1058 10.4492 32.0841L19.5926 21.94C19.6362 21.8965 19.6362 21.8313 19.5926 21.7879C19.5709 21.7662 19.5709 21.7662 19.5491 21.7662L16.2836 20.7452C16.2183 20.7235 16.1965 20.6584 16.2183 20.5932L19.0919 13.3381C19.0919 13.2729 19.0266 13.2077 18.9613 13.2077C18.9178 13.186 18.896 13.2077 18.8742 13.2295Z" fill="white" stroke="white" stroke-width="0.217985" stroke-miterlimit="10"/>
<path d="M51.1574 3.88867H44.9529L58.4939 17.3997H64.263L51.1574 3.88867Z" fill="#D61327"/>
<path d="M39.4037 3.88867H33.1992L46.7402 17.3997H52.5093L39.4037 3.88867Z" fill="#D61327"/>
<path d="M27.93 3.88867H21.7255L35.2665 17.3997H41.0356L27.93 3.88867Z" fill="#D61327"/>
<path d="M75.628 23.1122C74.583 22.656 73.7775 22.0043 73.168 21.1789C72.5802 20.3535 72.2754 19.376 72.2754 18.2682H75.6715C75.7368 19.0936 76.0852 19.7887 76.6512 20.3317C77.239 20.8748 78.0662 21.1355 79.1112 21.1355C80.1997 21.1355 81.0705 20.8748 81.6801 20.3317C82.2896 19.8104 82.5944 19.1153 82.5944 18.2899C82.5944 17.6382 82.3985 17.1169 82.0284 16.7042C81.6365 16.2915 81.1793 15.9874 80.6133 15.7484C80.0473 15.5312 79.2636 15.2923 78.2622 15.0316C76.9995 14.7058 75.9763 14.3582 75.1708 14.0107C74.3871 13.6631 73.7122 13.1418 73.1462 12.4032C72.5802 11.6647 72.3189 10.7089 72.3189 9.51421C72.3189 8.40639 72.6019 7.4289 73.1462 6.60347C73.6904 5.77803 74.4742 5.12637 75.4974 4.69194C76.4988 4.2575 77.6526 4.01855 78.9806 4.01855C80.8528 4.01855 82.3985 4.49644 83.5958 5.43048C84.7932 6.36453 85.4681 7.64612 85.5987 9.27527H82.0937C82.0284 8.58017 81.7018 7.97195 81.0923 7.47235C80.4827 6.97274 79.6772 6.71208 78.6758 6.71208C77.7614 6.71208 77.0213 6.95102 76.4552 7.40718C75.8892 7.86334 75.5844 8.53672 75.5844 9.4056C75.5844 9.99209 75.7586 10.4917 76.1287 10.861C76.4988 11.252 76.956 11.5344 77.5002 11.7733C78.0662 11.9905 78.8282 12.2295 79.7861 12.4901C81.0705 12.8377 82.1155 13.1852 82.9209 13.5545C83.7264 13.902 84.4231 14.4451 84.9891 15.1836C85.5551 15.9222 85.8381 16.8997 85.8381 18.1161C85.8381 19.0936 85.5769 20.0276 85.0326 20.8965C84.5102 21.7654 83.7264 22.4605 82.725 23.0035C81.7018 23.5249 80.5262 23.8073 79.133 23.8073C77.8485 23.8073 76.6729 23.5683 75.628 23.1122Z" fill="#00266F"/>
<path d="M102.122 4.2793V6.86421H96.9622V23.6118H93.7838V6.86421H88.6025V4.2793H102.122Z" fill="#00266F"/>
<path d="M117.013 19.6582H108.893L107.5 23.6116H104.191L111.135 4.25732H114.814L121.759 23.6116H118.406L117.013 19.6582ZM116.121 17.0733L112.964 8.08039L109.786 17.0733H116.121Z" fill="#00266F"/>
<path d="M137.281 4.2793V6.86421H132.121V23.6118H128.943V6.86421H123.762V4.2793H137.281Z" fill="#00266F"/>
<path d="M143.66 6.82075V12.4902H150.343V15.0751H143.66V21.0052H151.192V23.5901H140.481V4.23584H151.192V6.82075H143.66Z" fill="#00266F"/>
<path d="M76.3258 32.9516V35.6234H80.6362V38.0997H76.3258V40.9887H81.2023V43.5737H73.082V30.3667H81.2023V32.9516H76.3258Z" fill="#D61327"/>
<path d="M96.2675 43.5956H93.0455L87.6465 35.4499V43.5956H84.4246V30.3887H87.6465L93.0455 38.5779V30.3887H96.2675V43.5956Z" fill="#D61327"/>
<path d="M102.951 32.9516V35.6234H107.261V38.0997H102.951V40.9887H107.827V43.5737H99.707V30.3667H107.827V32.9516H102.951Z" fill="#D61327"/>
<path d="M117.798 43.5956L115.033 38.5996H114.249V43.5956H111.027V30.3887H116.448C117.493 30.3887 118.386 30.5624 119.126 30.9317C119.866 31.301 120.41 31.8006 120.78 32.4305C121.15 33.0605 121.325 33.7773 121.325 34.5593C121.325 35.4282 121.085 36.2319 120.584 36.9053C120.084 37.6004 119.365 38.0782 118.386 38.3824L121.433 43.6173H117.798V43.5956ZM114.271 36.3188H116.274C116.862 36.3188 117.319 36.1667 117.602 35.8843C117.907 35.6019 118.037 35.1892 118.037 34.6679C118.037 34.1683 117.885 33.7773 117.602 33.4732C117.297 33.1908 116.862 33.0388 116.274 33.0388H114.271V36.3188Z" fill="#D61327"/>
<path d="M133.254 34.5592C133.015 34.1248 132.667 33.7772 132.231 33.56C131.774 33.3211 131.252 33.2125 130.664 33.2125C129.619 33.2125 128.792 33.56 128.16 34.2334C127.529 34.9068 127.224 35.8408 127.224 36.9704C127.224 38.1868 127.551 39.1426 128.204 39.8159C128.857 40.4893 129.771 40.8369 130.925 40.8369C131.709 40.8369 132.384 40.6414 132.928 40.2287C133.472 39.8377 133.864 39.2512 134.125 38.4909H130.033V36.1232H137.042V39.1208C136.803 39.9246 136.389 40.6631 135.823 41.3582C135.257 42.0533 134.517 42.6181 133.646 43.0308C132.776 43.4652 131.774 43.6607 130.664 43.6607C129.358 43.6607 128.182 43.3784 127.159 42.8136C126.136 42.2488 125.33 41.4451 124.764 40.4242C124.198 39.4032 123.915 38.252 123.915 36.9487C123.915 35.6453 124.198 34.4723 124.764 33.4514C125.33 32.4305 126.136 31.6268 127.159 31.062C128.182 30.4972 129.336 30.2148 130.642 30.2148C132.231 30.2148 133.559 30.6058 134.648 31.3661C135.736 32.1264 136.455 33.1908 136.803 34.5375H133.254V34.5592Z" fill="#D61327"/>
<path d="M151.301 30.3672L146.73 39.2297V43.5959H143.508V39.2297L138.914 30.3889H142.571L145.14 35.928L147.687 30.3889H151.301V30.3672Z" fill="#D61327"/>
</svg>
