<svg width="58" height="58" viewBox="0 0 58 58" fill="none" xmlns="http://www.w3.org/2000/svg">
<circle cx="29" cy="29" r="28" fill="white" stroke="#6A6A6A"/>
<path d="M14.7142 37.5591L18.7715 11.9014L34.7537 14.4287" stroke="#00266F" stroke-width="1.5" stroke-linejoin="round"/>
<path d="M41.7969 24.5889L39.1352 41.4209" stroke="#00266F" stroke-width="1.5" stroke-linejoin="round"/>
<path d="M42.1993 21.9155L36.3665 20.9931L37.2969 15.1094L39.6309 18.5751L42.1993 21.9155Z" stroke="#00266F" stroke-width="1.5" stroke-linejoin="round"/>
<path d="M21.5312 19.3484L30.5661 20.7772" stroke="#00266F" stroke-width="1.5" stroke-linejoin="round"/>
<path d="M20.9941 22.7432L37.3837 25.3349" stroke="#00266F" stroke-width="1.5" stroke-linejoin="round"/>
<path d="M20.3672 26.7031L36.7568 29.2949" stroke="#00266F" stroke-width="1.5" stroke-linejoin="round"/>
<path d="M29.8443 44.1633C29.869 44.0581 29.8859 43.9512 29.8949 43.8436C30.1395 42.2965 28.894 40.847 27.1201 40.5665C25.3462 40.2859 23.7058 41.3003 23.4645 42.8267C23.4441 42.9545 23.4342 43.0838 23.4351 43.2132" stroke="#02CF6D" stroke-width="1.5" stroke-linecap="round" stroke-linejoin="round"/>
<path d="M15.2317 40.6104L18.532 41.1323L20.2372 38.0033L18.6247 35.7662L21.354 33.7823L23.1382 36.2368L26.1438 35.2797L26.5442 32.7478L30.0095 33.2957L29.6018 35.8741L32.5492 37.725L34.7925 36.3408L36.6166 38.7435L34.3242 40.4054L35.1829 43.7654L38.4678 44.2848" stroke="#02CF6D" stroke-width="1.5" stroke-linecap="round" stroke-linejoin="round"/>
</svg>
