<svg width="58" height="58" viewBox="0 0 58 58" fill="none" xmlns="http://www.w3.org/2000/svg">
<circle cx="29" cy="29" r="28" fill="white" stroke="#6A6A6A"/>
<path d="M42.7394 28.7895C43.1486 26.7414 43.0751 24.6262 42.5246 22.6114C41.9742 20.5967 40.9619 18.7378 39.5681 17.1823C38.2782 15.771 36.7137 14.638 34.9705 13.8527C33.2272 13.0674 31.3419 12.6462 29.4302 12.6153C28.5906 12.6153 22.8664 12.6891 18.9009 17.5056C17.6246 19.0597 16.712 20.8798 16.23 22.8322C15.7481 24.7846 15.7089 26.82 16.1154 28.7895C16.728 31.6261 18.2768 33.4244 21.38 37.0779C21.38 37.0779 22.9004 38.865 29.4302 44.958C32.6609 42.3144 35.6182 39.3533 38.2576 36.1192C40.8729 32.9025 42.1947 31.246 42.7394 28.7895Z" stroke="#00266F" stroke-width="1.5" stroke-linejoin="round"/>
<path d="M29.5701 26.2325C30.7607 26.2325 31.7259 25.2673 31.7259 24.0767C31.7259 22.8861 30.7607 21.9209 29.5701 21.9209C28.3795 21.9209 27.4143 22.8861 27.4143 24.0767C27.4143 25.2673 28.3795 26.2325 29.5701 26.2325Z" stroke="#02CF6D" stroke-width="1.5" stroke-linecap="round" stroke-linejoin="round"/>
<path d="M28.666 26.0623C27.0321 26.3119 25.8294 27.1967 25.8294 28.2689C25.8294 29.5283 27.5313 30.5382 29.6134 30.5382C31.6954 30.5382 33.3917 29.517 33.3917 28.2689C33.3917 27.191 32.1493 26.2892 30.4814 26.0509" stroke="#02CF6D" stroke-width="1.5" stroke-linecap="round" stroke-linejoin="round"/>
<path d="M29.4238 33.1116C33.8816 33.1116 37.4953 29.4978 37.4953 25.04C37.4953 20.5823 33.8816 16.9685 29.4238 16.9685C24.966 16.9685 21.3523 20.5823 21.3523 25.04C21.3523 29.4978 24.966 33.1116 29.4238 33.1116Z" stroke="#00266F" stroke-width="1.58085" stroke-linejoin="round"/>
</svg>
