<svg width="58" height="58" viewBox="0 0 58 58" fill="none" xmlns="http://www.w3.org/2000/svg">
<circle cx="29" cy="29" r="28" fill="white" stroke="#6A6A6A"/>
<path d="M22.2937 42.4446H26.8381C27.01 42.442 27.1799 42.408 27.3397 42.3444C28.7892 41.7725 36.0623 38.8332 37.4567 37.83L42.0011 34.4945L41.4995 33.9929C41.2866 33.7716 41.0073 33.6259 40.704 33.5779C40.4007 33.5299 40.09 33.5822 39.8192 33.727L34.6177 36.4958" stroke="#00266F" stroke-width="1.5" stroke-linejoin="round"/>
<path d="M34.9484 36.1498C34.9484 36.1498 34.5672 37.153 31.9389 37.153H28.2321" stroke="#00266F" stroke-width="1.5" stroke-linejoin="round"/>
<path d="M32.1549 37.1575L32.4408 36.8114C32.9534 36.1866 33.2319 35.4025 33.2283 34.5943V34.489H27.3948C27.0349 34.4908 26.6891 34.6288 26.4268 34.8752L24.6461 36.5405C24.387 36.7888 24.0419 36.9272 23.6831 36.9267H22.2937" stroke="#00266F" stroke-width="1.5" stroke-linejoin="round"/>
<path d="M18.2234 45.6601H20.6461V35.5581H15.4246" stroke="#00266F" stroke-width="1.5" stroke-linejoin="round"/>
<path d="M31.3476 23.3499C34.4805 23.3499 37.0202 20.8102 37.0202 17.6773C37.0202 14.5445 34.4805 12.0048 31.3476 12.0048C28.2147 12.0048 25.675 14.5445 25.675 17.6773C25.675 20.8102 28.2147 23.3499 31.3476 23.3499Z" stroke="#02CF6D" stroke-width="1.5" stroke-linecap="round" stroke-linejoin="round"/>
<path d="M38.7296 25.1463C38.7296 25.1463 35.9241 24.902 34.7566 25.9802C33.5891 27.0583 32.8505 29.0538 33.607 29.8758C34.3635 30.6978 36.4125 30.12 37.58 29.0418C38.7475 27.9637 38.7296 25.1463 38.7296 25.1463Z" stroke="#02CF6D" stroke-width="1.5" stroke-linecap="round" stroke-linejoin="round"/>
<path d="M24.3633 25.1463C24.3633 25.1463 27.1688 24.902 28.3363 25.9802C29.5038 27.0583 30.2424 29.0538 29.4859 29.8758C28.7294 30.6978 26.6804 30.12 25.5129 29.0418C24.3454 27.9637 24.3633 25.1463 24.3633 25.1463Z" stroke="#02CF6D" stroke-width="1.5" stroke-linecap="round" stroke-linejoin="round"/>
<path d="M29.2691 30.0362L31.5743 31.7815L33.7723 30.0362" stroke="#02CF6D" stroke-width="1.5" stroke-linecap="round" stroke-linejoin="round"/>
<path d="M32.4422 19.9464H31.4557V16.6693C31.0967 16.9716 30.658 17.2023 30.1732 17.3436V16.5547C30.4757 16.454 30.754 16.3102 30.9953 16.1299C31.2812 15.943 31.4953 15.6925 31.6119 15.4083H32.434L32.4422 19.9464Z" fill="#02CF6D" stroke="#02CF6D" stroke-width="1.5" stroke-linejoin="round"/>
</svg>
