<svg width="24" height="24" viewBox="0 0 24 24" fill="none" xmlns="http://www.w3.org/2000/svg">
<path d="M12 23.5C5.65661 23.5 0.5 18.3434 0.5 12C0.5 5.65661 5.65661 0.5 12 0.5C18.3434 0.5 23.5 5.65661 23.5 12C23.5 18.3434 18.3434 23.5 12 23.5Z" stroke="#00266F" stroke-linecap="round"/>
<path d="M16.5 22.5C19.1641 15.7087 19.1667 8.30311 16.5076 1.5" stroke="#00266F" stroke-linecap="round"/>
<path d="M7.5 22.5C4.83588 15.7087 4.83334 8.30311 7.49238 1.5" stroke="#00266F" stroke-linecap="round"/>
<path d="M1.33301 8.66699C8.24461 6.00512 15.7633 6.00033 22.6663 8.65262" stroke="#00266F" stroke-linecap="round"/>
<path d="M1.33301 15.3333C8.24461 17.9951 15.7633 17.9999 22.6663 15.3476" stroke="#00266F" stroke-linecap="round"/>
</svg>
