<svg width="64" height="64" viewBox="0 0 64 64" fill="none" xmlns="http://www.w3.org/2000/svg">
<circle cx="32" cy="32" r="32" fill="#FAFAFA"/>
<path d="M33.0476 18H22.5385C18.9274 18 16 20.9274 16 24.5385V37.4615C16 41.0726 18.9274 44 22.5385 44H43.5C45.9853 44 48 41.9853 48 39.5V39.5V39" stroke="#00266F" stroke-width="1.5" stroke-linecap="round" stroke-linejoin="round"/>
<circle cx="42.7976" cy="27.7976" r="3.7976" stroke="#00266F" stroke-width="1.5" stroke-linecap="round" stroke-linejoin="round"/>
<path d="M45.4367 20.4265L44.9851 20.1852C44.6072 19.9832 44.3712 19.5896 44.3712 19.1611C44.3712 18.5199 43.8514 18 43.2101 18H41.6251C40.9159 18 40.3409 18.575 40.3409 19.2842C40.3409 19.8039 40.0277 20.2724 39.5474 20.471L39.404 20.5303C38.9138 20.733 38.3531 20.6632 37.9275 20.3464C37.329 19.9009 36.4947 19.9602 35.9651 20.4857L35.075 21.3692C34.5803 21.8602 34.617 22.6707 35.1541 23.1149C35.5781 23.4656 35.7032 24.0628 35.4557 24.5542L35.1921 25.0773C34.9953 25.4679 34.5953 25.7143 34.158 25.7143C33.5184 25.7143 33 26.2327 33 26.8723V28.2861C33 28.9171 33.5115 29.4286 34.1425 29.4286C34.587 29.4286 34.9911 29.6863 35.1785 30.0893L35.4188 30.6062C35.6123 31.0222 35.5525 31.512 35.2645 31.8692C34.8775 32.3494 34.916 33.0445 35.3538 33.4789L36.4495 34.5664C36.9368 35.0501 37.7171 35.0686 38.2269 34.6087C38.6317 34.2435 39.222 34.1713 39.7029 34.4283L40.1117 34.6467C40.5186 34.8642 40.7727 35.2881 40.7727 35.7496C40.7727 36.4402 41.3326 37 42.0232 37H43.1868C43.8409 37 44.3712 36.4697 44.3712 35.8156C44.3712 35.3245 44.6744 34.8843 45.1332 34.7091L45.5193 34.5617C45.9732 34.3885 46.4828 34.4447 46.8879 34.7128C47.5097 35.1242 48.339 35.0189 48.8382 34.4651L49.6565 33.5575C50.0821 33.0854 50.062 32.3623 49.6109 31.9145C49.2353 31.5418 49.1507 30.9661 49.403 30.5011L49.6263 30.0894C49.8472 29.6822 50.2734 29.4286 50.7367 29.4286C51.4344 29.4286 52 28.863 52 28.1653V26.4817C52 25.8212 51.4645 25.2857 50.804 25.2857C50.3103 25.2857 49.8673 24.9823 49.6888 24.5219L49.5241 24.0968C49.3639 23.6834 49.4366 23.2158 49.7149 22.8706C50.1137 22.3759 50.074 21.6599 49.623 21.2123L48.8496 20.4447C48.3438 19.9427 47.5469 19.8861 46.9753 20.3116C46.5279 20.6446 45.9285 20.6894 45.4367 20.4265Z" stroke="#02CF6D" stroke-width="1.5" stroke-linecap="round" stroke-linejoin="round"/>
<path d="M26 48H40" stroke="#00266F" stroke-width="1.5" stroke-linecap="round" stroke-linejoin="round"/>
</svg>
